<svg width="3050" height="1492" viewBox="0 0 3050 1492" fill="none" xmlns="http://www.w3.org/2000/svg">
<g filter="url(#filter0_d_20_519)">
<path d="M54 387.525C54 250.821 168.603 140 309.973 140H998.027C1139.4 140 1254 250.821 1254 387.525V1092.48C1254 1229.18 1139.4 1340 998.027 1340H309.973C168.603 1340 54 1229.18 54 1092.48V387.525Z" fill="#42129A"/>
<path d="M309.973 140.495H998.027C1139.12 140.495 1253.49 251.094 1253.49 387.525V1092.48C1253.49 1228.91 1139.12 1339.5 998.027 1339.5H309.973C168.886 1339.5 54.512 1228.91 54.512 1092.48V387.525C54.512 251.094 168.886 140.495 309.973 140.495Z" stroke="#42129A"/>
</g>
<path fill-rule="evenodd" clip-rule="evenodd" d="M200 460C200 363.348 278.348 285 375 285C471.652 285 550 363.348 550 460C550 556.652 471.652 635 375 635C278.348 635 200 556.652 200 460ZM375 390C375 385.359 373.156 380.908 369.874 377.626C366.592 374.344 362.141 372.5 357.5 372.5C352.859 372.5 348.408 374.344 345.126 377.626C341.844 380.908 340 385.359 340 390V477.5C340 482.141 341.844 486.592 345.126 489.874C348.408 493.156 352.859 495 357.5 495H445C449.641 495 454.092 493.156 457.374 489.874C460.656 486.592 462.5 482.141 462.5 477.5C462.5 472.859 460.656 468.408 457.374 465.126C454.092 461.844 449.641 460 445 460H375V390Z" fill="#F97316"/>
<path fill-rule="evenodd" clip-rule="evenodd" d="M1071.87 286.398C1077.08 293.691 1080 303.58 1080 313.891C1080 324.202 1077.08 334.091 1071.87 341.383L863.762 632.848C861.012 636.701 857.747 639.757 854.153 641.842C850.559 643.927 846.708 645 842.818 645C838.928 645 835.076 643.927 831.483 641.842C827.889 639.757 824.624 636.701 821.874 632.848L718.476 488.062C715.825 484.475 713.709 480.184 712.254 475.44C710.799 470.695 710.033 465.593 710.001 460.429C709.969 455.266 710.672 450.146 712.068 445.367C713.464 440.588 715.525 436.246 718.132 432.595C720.739 428.944 723.839 426.056 727.251 424.101C730.664 422.146 734.32 421.162 738.006 421.207C741.693 421.252 745.336 422.324 748.724 424.362C752.111 426.4 755.175 429.363 757.736 433.077L842.809 552.224L1032.59 286.398C1035.17 282.785 1038.23 279.918 1041.6 277.962C1044.97 276.007 1048.58 275 1052.23 275C1055.88 275 1059.49 276.007 1062.86 277.962C1066.23 279.918 1069.29 282.785 1071.87 286.398Z" fill="#22C55E"/>
<path d="M236.081 822.43C239.791 818.718 245.808 818.717 249.519 822.428L357.549 930.462C361.649 934.562 368.297 934.564 372.397 930.464L480.46 822.427C484.172 818.716 490.189 818.719 493.897 822.432L542.538 871.128C546.244 874.838 546.243 880.849 542.535 884.558L434.529 992.599C430.43 996.699 430.431 1003.35 434.53 1007.45L542.57 1115.5C546.282 1119.21 546.279 1125.23 542.563 1128.94L493.831 1177.59C490.12 1181.29 484.108 1181.29 480.4 1177.58L372.398 1069.54C368.298 1065.44 361.648 1065.44 357.547 1069.54L249.56 1177.58C245.851 1181.29 239.836 1181.29 236.125 1177.58L187.429 1128.92C183.717 1125.21 183.715 1119.19 187.425 1115.48L295.417 1007.45C299.515 1003.35 299.515 996.7 295.417 992.6L187.419 884.56C183.711 880.85 183.711 874.838 187.418 871.128L236.081 822.43Z" fill="#EF4444" stroke="black"/>
<g filter="url(#filter1_d_20_519)">
<path d="M904.99 1131.72L810.466 1191.34C806.29 1194.13 801.925 1195.32 797.369 1194.92C792.814 1194.52 788.828 1192.93 785.412 1190.15C781.995 1187.37 779.338 1183.89 777.44 1179.73C775.542 1175.56 775.162 1170.89 776.301 1165.71L801.355 1053.02L717.65 977.304C713.854 973.727 711.485 969.649 710.544 965.07C709.602 960.491 709.883 956.024 711.387 951.667C712.89 947.311 715.168 943.734 718.22 940.935C721.272 938.137 725.448 936.349 730.747 935.57L841.215 925.434L883.922 819.309C885.82 814.539 888.766 810.962 892.759 808.577C896.753 806.192 900.83 805 904.99 805C909.151 805 913.228 806.192 917.221 808.577C921.215 810.962 924.161 814.539 926.059 819.309L968.766 925.434L1079.23 935.57C1084.55 936.365 1088.72 938.153 1091.76 940.935C1094.8 943.718 1097.08 947.295 1098.59 951.667C1100.11 956.039 1100.4 960.515 1099.46 965.094C1098.52 969.673 1096.14 973.743 1092.33 977.304L1008.63 1053.02L1033.68 1165.71C1034.82 1170.87 1034.44 1175.55 1032.54 1179.73C1030.64 1183.91 1027.99 1187.38 1024.57 1190.15C1021.15 1192.92 1017.17 1194.51 1012.61 1194.92C1008.06 1195.33 1003.69 1194.14 999.514 1191.34L904.99 1131.72Z" fill="url(#paint0_linear_20_519)"/>
</g>
<g filter="url(#filter2_d_20_519)">
<path d="M1657.49 612.955C1655.36 594.962 1646.72 580.994 1631.56 571.051C1616.41 561.108 1597.83 556.137 1575.81 556.137C1559.71 556.137 1545.63 558.741 1533.55 563.949C1521.6 569.157 1512.25 576.319 1505.5 585.433C1498.87 594.548 1495.56 604.905 1495.56 616.506C1495.56 626.212 1497.86 634.557 1502.48 641.541C1507.22 648.407 1513.25 654.148 1520.59 658.764C1527.93 663.262 1535.62 666.991 1543.67 669.95C1551.72 672.791 1559.12 675.1 1565.87 676.875L1602.8 686.818C1612.27 689.304 1622.8 692.737 1634.41 697.117C1646.12 701.496 1657.31 707.474 1667.96 715.05C1678.74 722.507 1687.61 732.095 1694.6 743.814C1701.58 755.533 1705.07 769.912 1705.07 786.962C1705.07 806.612 1699.92 824.362 1689.63 840.232C1679.45 856.092 1664.53 868.692 1644.88 878.052C1625.35 887.402 1601.62 892.072 1573.68 892.072C1547.64 892.072 1525.09 887.872 1506.03 879.472C1487.09 871.062 1472.18 859.342 1461.29 844.312C1450.52 829.282 1444.42 811.822 1443 791.932H1488.45C1489.64 805.662 1494.25 817.022 1502.3 826.022C1510.47 834.902 1520.77 841.532 1533.2 845.912C1545.75 850.172 1559.24 852.302 1573.68 852.302C1590.49 852.302 1605.58 849.582 1618.96 844.132C1632.33 838.572 1642.93 830.872 1650.74 821.052C1658.55 811.112 1662.46 799.512 1662.46 786.252C1662.46 774.172 1659.09 764.352 1652.34 756.776C1645.59 749.2 1636.71 743.045 1625.71 738.31C1614.7 733.575 1602.8 729.432 1590.02 725.881L1545.27 713.097C1516.86 704.929 1494.37 693.27 1477.8 678.118C1461.23 662.967 1452.94 643.139 1452.94 618.637C1452.94 598.277 1458.45 580.521 1469.46 565.37C1480.58 550.1 1495.5 538.262 1514.2 529.858C1533.02 521.335 1554.03 517.074 1577.23 517.074C1600.67 517.074 1621.5 521.276 1639.73 529.681C1657.96 537.967 1672.4 549.33 1683.06 563.771C1693.83 578.213 1699.51 594.607 1700.1 612.955H1657.49ZM1838.69 721.62V885.682H1796.79V522.046H1838.69V655.568H1842.24C1848.64 641.482 1858.22 630.296 1871.01 622.01C1883.91 613.606 1901.07 609.404 1922.5 609.404C1941.08 609.404 1957.36 613.132 1971.33 620.59C1985.3 627.929 1996.13 639.233 2003.82 654.503C2011.63 669.655 2015.54 688.949 2015.54 712.387V885.682H1973.64V715.227C1973.64 693.566 1968.01 676.816 1956.77 664.979C1945.64 653.023 1930.19 647.046 1910.43 647.046C1896.7 647.046 1884.38 649.946 1873.49 655.746C1862.72 661.546 1854.2 670.01 1847.93 681.137C1841.77 692.263 1838.69 705.758 1838.69 721.62ZM2231.55 891.362C2205.27 891.362 2182.6 885.562 2163.54 873.962C2144.6 862.242 2129.98 845.912 2119.69 824.962C2109.51 803.892 2104.42 779.382 2104.42 751.449C2104.42 723.513 2109.51 698.892 2119.69 677.585C2129.98 656.16 2144.31 639.47 2162.65 627.514C2181.12 615.441 2202.66 609.404 2227.29 609.404C2241.49 609.404 2255.52 611.771 2269.37 616.506C2283.22 621.241 2295.82 628.935 2307.19 639.588C2318.55 650.123 2327.6 664.091 2334.35 681.492C2341.1 698.892 2344.47 720.317 2344.47 745.767V763.523H2134.25V727.301H2301.86C2301.86 711.913 2298.78 698.182 2292.63 686.108C2286.59 674.034 2277.95 664.505 2266.7 657.521C2255.58 650.538 2242.44 647.046 2227.29 647.046C2210.59 647.046 2196.15 651.189 2183.96 659.475C2171.89 667.642 2162.6 678.296 2156.09 691.435C2149.57 704.574 2146.32 718.66 2146.32 733.693V757.841C2146.32 778.442 2149.87 795.902 2156.97 810.222C2164.19 824.422 2174.2 835.252 2186.98 842.712C2199.76 850.052 2214.62 853.722 2231.55 853.722C2242.56 853.722 2252.5 852.182 2261.38 849.102C2270.37 845.912 2278.13 841.172 2284.64 834.902C2291.15 828.512 2296.18 820.582 2299.73 811.112L2340.21 822.472C2335.95 836.202 2328.79 848.272 2318.73 858.692C2308.67 868.992 2296.24 877.042 2281.44 882.842C2266.64 888.522 2250.01 891.362 2231.55 891.362ZM2475.12 522.046V885.682H2433.22V522.046H2475.12ZM2698.32 612.955V648.466H2551.3V612.955H2698.32ZM2595.33 885.682V575.313C2595.33 559.688 2599 546.667 2606.34 536.25C2613.68 525.833 2623.21 518.021 2634.93 512.813C2646.65 507.604 2659.02 505 2672.04 505C2682.34 505 2690.74 505.829 2697.25 507.486C2703.76 509.143 2708.62 510.682 2711.81 512.102L2699.74 548.324C2697.61 547.614 2694.65 546.726 2690.86 545.661C2687.19 544.595 2682.34 544.063 2676.3 544.063C2662.45 544.063 2652.45 547.555 2646.29 554.539C2640.26 561.522 2637.24 571.762 2637.24 585.256V885.682H2595.33ZM2809.03 987.952C2801.93 987.952 2795.6 987.362 2790.03 986.182C2784.47 985.112 2780.62 984.052 2778.49 982.982L2789.15 946.052C2799.33 948.652 2808.32 949.602 2816.13 948.892C2823.95 948.182 2830.87 944.692 2836.91 938.412C2843.06 932.262 2848.69 922.262 2853.78 908.412L2861.59 887.102L2760.74 612.955H2806.19L2881.48 830.282H2884.32L2959.6 612.955H3005.06L2889.29 925.452C2884.08 939.542 2877.63 951.202 2869.93 960.432C2862.24 969.782 2853.3 976.712 2843.12 981.212C2833.06 985.702 2821.7 987.952 2809.03 987.952Z" fill="#2B0C66"/>
</g>
<rect x="43" y="138" width="46.0625" height="30" rx="3" fill="white"/>
<rect x="43.5" y="138.5" width="45.0625" height="29" rx="2.5" stroke="black" stroke-opacity="0.2"/>
<path d="M49.8438 156V150H50.7656V156H49.8438ZM50.3125 149C50.1328 149 49.9779 148.939 49.8477 148.816C49.7201 148.694 49.6563 148.547 49.6563 148.375C49.6563 148.203 49.7201 148.056 49.8477 147.934C49.9779 147.811 50.1328 147.75 50.3125 147.75C50.4922 147.75 50.6458 147.811 50.7734 147.934C50.9036 148.056 50.9688 148.203 50.9688 148.375C50.9688 148.547 50.9036 148.694 50.7734 148.816C50.6458 148.939 50.4922 149 50.3125 149ZM54.8916 156.125C54.3291 156.125 53.8447 155.992 53.4385 155.727C53.0322 155.461 52.7197 155.095 52.501 154.629C52.2822 154.163 52.1729 153.63 52.1729 153.031C52.1729 152.422 52.2848 151.884 52.5088 151.418C52.7354 150.949 53.0505 150.583 53.4541 150.32C53.8604 150.055 54.3343 149.922 54.876 149.922C55.2979 149.922 55.6781 150 56.0166 150.156C56.3551 150.312 56.6325 150.531 56.8486 150.812C57.0648 151.094 57.1989 151.422 57.251 151.797H56.3291C56.2588 151.523 56.1025 151.281 55.8604 151.07C55.6208 150.857 55.2979 150.75 54.8916 150.75C54.5322 150.75 54.2171 150.844 53.9463 151.031C53.6781 151.216 53.4684 151.478 53.3174 151.816C53.1689 152.152 53.0947 152.547 53.0947 153C53.0947 153.464 53.1676 153.867 53.3135 154.211C53.4619 154.555 53.6702 154.822 53.9385 155.012C54.2093 155.202 54.527 155.297 54.8916 155.297C55.1312 155.297 55.3486 155.255 55.5439 155.172C55.7393 155.089 55.9046 154.969 56.04 154.812C56.1755 154.656 56.2718 154.469 56.3291 154.25H57.251C57.1989 154.604 57.07 154.923 56.8643 155.207C56.6611 155.488 56.3916 155.712 56.0557 155.879C55.7223 156.043 55.3343 156.125 54.8916 156.125ZM61.0361 156.125C60.4945 156.125 60.0192 155.996 59.6104 155.738C59.2041 155.48 58.8864 155.12 58.6572 154.656C58.4307 154.193 58.3174 153.651 58.3174 153.031C58.3174 152.406 58.4307 151.861 58.6572 151.395C58.8864 150.928 59.2041 150.566 59.6104 150.309C60.0192 150.051 60.4945 149.922 61.0361 149.922C61.5778 149.922 62.0518 150.051 62.458 150.309C62.8669 150.566 63.1846 150.928 63.4111 151.395C63.6403 151.861 63.7549 152.406 63.7549 153.031C63.7549 153.651 63.6403 154.193 63.4111 154.656C63.1846 155.12 62.8669 155.48 62.458 155.738C62.0518 155.996 61.5778 156.125 61.0361 156.125ZM61.0361 155.297C61.4476 155.297 61.7861 155.191 62.0518 154.98C62.3174 154.77 62.514 154.492 62.6416 154.148C62.7692 153.805 62.833 153.432 62.833 153.031C62.833 152.63 62.7692 152.257 62.6416 151.91C62.514 151.564 62.3174 151.284 62.0518 151.07C61.7861 150.857 61.4476 150.75 61.0361 150.75C60.6247 150.75 60.2861 150.857 60.0205 151.07C59.7549 151.284 59.5583 151.564 59.4307 151.91C59.3031 152.257 59.2393 152.63 59.2393 153.031C59.2393 153.432 59.3031 153.805 59.4307 154.148C59.5583 154.492 59.7549 154.77 60.0205 154.98C60.2861 155.191 60.6247 155.297 61.0361 155.297ZM66.084 152.391V156H65.1621V150H66.0527V150.937H66.1309C66.2715 150.633 66.485 150.388 66.7715 150.203C67.0579 150.016 67.4277 149.922 67.8809 149.922C68.2871 149.922 68.6426 150.005 68.9473 150.172C69.252 150.336 69.4889 150.586 69.6582 150.922C69.8275 151.255 69.9121 151.677 69.9121 152.188V156H68.9902V152.25C68.9902 151.779 68.8678 151.411 68.623 151.148C68.3783 150.883 68.0423 150.75 67.6152 150.75C67.321 150.75 67.0579 150.814 66.8262 150.941C66.597 151.069 66.416 151.255 66.2832 151.5C66.1504 151.745 66.084 152.042 66.084 152.391ZM74.0342 156.125C73.4925 156.125 73.0173 155.996 72.6084 155.738C72.2021 155.48 71.8844 155.12 71.6553 154.656C71.4287 154.193 71.3154 153.651 71.3154 153.031C71.3154 152.406 71.4287 151.861 71.6553 151.395C71.8844 150.928 72.2021 150.566 72.6084 150.309C73.0173 150.051 73.4925 149.922 74.0342 149.922C74.5758 149.922 75.0498 150.051 75.4561 150.309C75.8649 150.566 76.1826 150.928 76.4092 151.395C76.6383 151.861 76.7529 152.406 76.7529 153.031C76.7529 153.651 76.6383 154.193 76.4092 154.656C76.1826 155.12 75.8649 155.48 75.4561 155.738C75.0498 155.996 74.5758 156.125 74.0342 156.125ZM74.0342 155.297C74.4456 155.297 74.7842 155.191 75.0498 154.98C75.3154 154.77 75.512 154.492 75.6396 154.148C75.7673 153.805 75.8311 153.432 75.8311 153.031C75.8311 152.63 75.7673 152.257 75.6396 151.91C75.512 151.564 75.3154 151.284 75.0498 151.07C74.7842 150.857 74.4456 150.75 74.0342 150.75C73.6227 150.75 73.2842 150.857 73.0186 151.07C72.7529 151.284 72.5563 151.564 72.4287 151.91C72.3011 152.257 72.2373 152.63 72.2373 153.031C72.2373 153.432 72.3011 153.805 72.4287 154.148C72.5563 154.492 72.7529 154.77 73.0186 154.98C73.2842 155.191 73.6227 155.297 74.0342 155.297ZM82.4102 151.344L81.582 151.578C81.5299 151.44 81.4531 151.306 81.3516 151.176C81.2526 151.043 81.1172 150.934 80.9453 150.848C80.7734 150.762 80.5534 150.719 80.2852 150.719C79.918 150.719 79.612 150.803 79.3672 150.973C79.125 151.139 79.0039 151.352 79.0039 151.609C79.0039 151.839 79.0872 152.02 79.2539 152.152C79.4206 152.285 79.681 152.396 80.0352 152.484L80.9258 152.703C81.4622 152.833 81.862 153.033 82.125 153.301C82.388 153.566 82.5195 153.909 82.5195 154.328C82.5195 154.672 82.4206 154.979 82.2227 155.25C82.0273 155.521 81.7539 155.734 81.4023 155.891C81.0508 156.047 80.6419 156.125 80.1758 156.125C79.5638 156.125 79.0573 155.992 78.6563 155.727C78.2552 155.461 78.0013 155.073 77.8945 154.562L78.7695 154.344C78.8529 154.667 79.0104 154.909 79.2422 155.07C79.4766 155.232 79.7826 155.312 80.1602 155.312C80.5898 155.312 80.931 155.221 81.1836 155.039C81.4388 154.854 81.5664 154.633 81.5664 154.375C81.5664 154.167 81.4935 153.992 81.3477 153.852C81.2018 153.708 80.9779 153.602 80.6758 153.531L79.6758 153.297C79.1263 153.167 78.7227 152.965 78.4648 152.691C78.2096 152.415 78.082 152.07 78.082 151.656C78.082 151.318 78.1771 151.018 78.3672 150.758C78.5599 150.497 78.8216 150.293 79.1523 150.145C79.4857 149.996 79.8633 149.922 80.2852 149.922C80.8789 149.922 81.3451 150.052 81.6836 150.312C82.0247 150.573 82.2669 150.917 82.4102 151.344Z" fill="black"/>
<rect x="167" y="262" width="63.7344" height="30" rx="3" fill="black"/>
<rect x="167.5" y="262.5" width="62.7344" height="29" rx="2.5" stroke="black" stroke-opacity="0.2"/>
<path d="M175.422 280L173.234 272H174.219L175.891 278.516H175.969L177.672 272H178.766L180.469 278.516H180.547L182.219 272H183.203L181.016 280H180.016L178.25 273.625H178.188L176.422 280H175.422ZM184.41 280V272H189.238V272.859H185.379V275.562H188.988V276.422H185.379V279.141H189.301V280H184.41ZM190.984 280V272H193.781C194.339 272 194.798 272.096 195.16 272.289C195.522 272.479 195.792 272.736 195.969 273.059C196.146 273.379 196.234 273.734 196.234 274.125C196.234 274.469 196.173 274.753 196.051 274.977C195.931 275.201 195.772 275.378 195.574 275.508C195.379 275.638 195.167 275.734 194.938 275.797V275.875C195.182 275.891 195.428 275.977 195.676 276.133C195.923 276.289 196.13 276.513 196.297 276.805C196.464 277.096 196.547 277.453 196.547 277.875C196.547 278.276 196.456 278.637 196.273 278.957C196.091 279.277 195.803 279.531 195.41 279.719C195.017 279.906 194.505 280 193.875 280H190.984ZM191.953 279.141H193.875C194.508 279.141 194.957 279.018 195.223 278.773C195.491 278.526 195.625 278.227 195.625 277.875C195.625 277.604 195.556 277.354 195.418 277.125C195.28 276.893 195.083 276.708 194.828 276.57C194.573 276.43 194.271 276.359 193.922 276.359H191.953V279.141ZM191.953 275.516H193.75C194.042 275.516 194.305 275.458 194.539 275.344C194.776 275.229 194.964 275.068 195.102 274.859C195.242 274.651 195.313 274.406 195.313 274.125C195.313 273.773 195.19 273.475 194.945 273.23C194.701 272.983 194.313 272.859 193.781 272.859H191.953V275.516ZM199.107 272V280H198.139V272H199.107ZM207.487 274.5H206.519C206.461 274.221 206.361 273.977 206.218 273.766C206.077 273.555 205.905 273.378 205.702 273.234C205.502 273.089 205.279 272.979 205.034 272.906C204.789 272.833 204.534 272.797 204.269 272.797C203.784 272.797 203.345 272.919 202.952 273.164C202.562 273.409 202.25 273.77 202.019 274.246C201.789 274.723 201.675 275.307 201.675 276C201.675 276.693 201.789 277.277 202.019 277.754C202.25 278.23 202.562 278.591 202.952 278.836C203.345 279.081 203.784 279.203 204.269 279.203C204.534 279.203 204.789 279.167 205.034 279.094C205.279 279.021 205.502 278.913 205.702 278.77C205.905 278.624 206.077 278.445 206.218 278.234C206.361 278.021 206.461 277.776 206.519 277.5H207.487C207.414 277.909 207.282 278.275 207.089 278.598C206.896 278.921 206.657 279.195 206.37 279.422C206.084 279.646 205.762 279.816 205.405 279.934C205.051 280.051 204.672 280.109 204.269 280.109C203.586 280.109 202.979 279.943 202.448 279.609C201.917 279.276 201.499 278.802 201.194 278.187C200.89 277.573 200.737 276.844 200.737 276C200.737 275.156 200.89 274.427 201.194 273.812C201.499 273.198 201.917 272.724 202.448 272.391C202.979 272.057 203.586 271.891 204.269 271.891C204.672 271.891 205.051 271.949 205.405 272.066C205.762 272.184 206.084 272.355 206.37 272.582C206.657 272.806 206.896 273.079 207.089 273.402C207.282 273.723 207.414 274.089 207.487 274.5ZM215.803 276C215.803 276.844 215.65 277.573 215.346 278.187C215.041 278.802 214.623 279.276 214.092 279.609C213.561 279.943 212.954 280.109 212.271 280.109C211.589 280.109 210.982 279.943 210.451 279.609C209.92 279.276 209.502 278.802 209.197 278.187C208.893 277.573 208.74 276.844 208.74 276C208.74 275.156 208.893 274.427 209.197 273.812C209.502 273.198 209.92 272.724 210.451 272.391C210.982 272.057 211.589 271.891 212.271 271.891C212.954 271.891 213.561 272.057 214.092 272.391C214.623 272.724 215.041 273.198 215.346 273.812C215.65 274.427 215.803 275.156 215.803 276ZM214.865 276C214.865 275.307 214.749 274.723 214.518 274.246C214.288 273.77 213.977 273.409 213.584 273.164C213.193 272.919 212.756 272.797 212.271 272.797C211.787 272.797 211.348 272.919 210.955 273.164C210.564 273.409 210.253 273.77 210.021 274.246C209.792 274.723 209.678 275.307 209.678 276C209.678 276.693 209.792 277.277 210.021 277.754C210.253 278.23 210.564 278.591 210.955 278.836C211.348 279.081 211.787 279.203 212.271 279.203C212.756 279.203 213.193 279.081 213.584 278.836C213.977 278.591 214.288 278.23 214.518 277.754C214.749 277.277 214.865 276.693 214.865 276ZM223.775 272V280H222.838L218.479 273.719H218.4V280H217.432V272H218.369L222.744 278.297H222.822V272H223.775Z" fill="white"/>
<rect x="44" y="4" width="85.7812" height="30" rx="3" fill="black"/>
<rect x="44.5" y="4.5" width="84.7812" height="29" rx="2.5" stroke="black" stroke-opacity="0.2"/>
<path d="M50.9688 22V14H51.9375V21.1406H55.6563V22H50.9688ZM63.5947 18C63.5947 18.8437 63.4424 19.5729 63.1377 20.1875C62.833 20.8021 62.415 21.276 61.8838 21.6094C61.3525 21.9427 60.7458 22.1094 60.0635 22.1094C59.3812 22.1094 58.7744 21.9427 58.2432 21.6094C57.7119 21.276 57.2939 20.8021 56.9893 20.1875C56.6846 19.5729 56.5322 18.8437 56.5322 18C56.5322 17.1562 56.6846 16.4271 56.9893 15.8125C57.2939 15.1979 57.7119 14.724 58.2432 14.3906C58.7744 14.0573 59.3812 13.8906 60.0635 13.8906C60.7458 13.8906 61.3525 14.0573 61.8838 14.3906C62.415 14.724 62.833 15.1979 63.1377 15.8125C63.4424 16.4271 63.5947 17.1562 63.5947 18ZM62.6572 18C62.6572 17.3073 62.5413 16.7227 62.3096 16.2461C62.0804 15.7695 61.7692 15.4089 61.376 15.1641C60.9854 14.9193 60.5479 14.7969 60.0635 14.7969C59.5791 14.7969 59.1403 14.9193 58.7471 15.1641C58.3564 15.4089 58.0452 15.7695 57.8135 16.2461C57.5843 16.7227 57.4697 17.3073 57.4697 18C57.4697 18.6927 57.5843 19.2773 57.8135 19.7539C58.0452 20.2305 58.3564 20.5911 58.7471 20.8359C59.1403 21.0807 59.5791 21.2031 60.0635 21.2031C60.5479 21.2031 60.9854 21.0807 61.376 20.8359C61.7692 20.5911 62.0804 20.2305 62.3096 19.7539C62.5413 19.2773 62.6572 18.6927 62.6572 18ZM70.6924 16.5C70.6064 16.237 70.4932 16.0013 70.3525 15.793C70.2145 15.582 70.0492 15.4023 69.8564 15.2539C69.6663 15.1055 69.4502 14.9922 69.208 14.9141C68.9658 14.8359 68.7002 14.7969 68.4111 14.7969C67.9372 14.7969 67.5062 14.9193 67.1182 15.1641C66.7301 15.4089 66.4215 15.7695 66.1924 16.2461C65.9632 16.7227 65.8486 17.3073 65.8486 18C65.8486 18.6927 65.9645 19.2773 66.1963 19.7539C66.4281 20.2305 66.7419 20.5911 67.1377 20.8359C67.5335 21.0807 67.9788 21.2031 68.4736 21.2031C68.932 21.2031 69.3356 21.1055 69.6846 20.9102C70.0361 20.7122 70.3096 20.4336 70.5049 20.0742C70.7028 19.7122 70.8018 19.2865 70.8018 18.7969L71.0986 18.8594H68.6924V18H71.7393V18.8594C71.7393 19.5182 71.5986 20.0911 71.3174 20.5781C71.0387 21.0651 70.6533 21.4427 70.1611 21.7109C69.6715 21.9766 69.109 22.1094 68.4736 22.1094C67.7653 22.1094 67.1429 21.9427 66.6064 21.6094C66.0726 21.276 65.6559 20.8021 65.3564 20.1875C65.0596 19.5729 64.9111 18.8437 64.9111 18C64.9111 17.3672 64.9958 16.7982 65.165 16.293C65.3369 15.7852 65.5791 15.3529 65.8916 14.9961C66.2041 14.6393 66.5739 14.3659 67.001 14.1758C67.4281 13.9857 67.8981 13.8906 68.4111 13.8906C68.833 13.8906 69.2262 13.9544 69.5908 14.082C69.958 14.207 70.2848 14.3854 70.5713 14.6172C70.8604 14.8464 71.1012 15.1211 71.2939 15.4414C71.4867 15.7591 71.6195 16.112 71.6924 16.5H70.6924ZM80.1484 18C80.1484 18.8437 79.9961 19.5729 79.6914 20.1875C79.3867 20.8021 78.9688 21.276 78.4375 21.6094C77.9063 21.9427 77.2995 22.1094 76.6172 22.1094C75.9349 22.1094 75.3281 21.9427 74.7969 21.6094C74.2656 21.276 73.8477 20.8021 73.543 20.1875C73.2383 19.5729 73.0859 18.8437 73.0859 18C73.0859 17.1562 73.2383 16.4271 73.543 15.8125C73.8477 15.1979 74.2656 14.724 74.7969 14.3906C75.3281 14.0573 75.9349 13.8906 76.6172 13.8906C77.2995 13.8906 77.9063 14.0573 78.4375 14.3906C78.9688 14.724 79.3867 15.1979 79.6914 15.8125C79.9961 16.4271 80.1484 17.1562 80.1484 18ZM79.2109 18C79.2109 17.3073 79.0951 16.7227 78.8633 16.2461C78.6341 15.7695 78.3229 15.4089 77.9297 15.1641C77.5391 14.9193 77.1016 14.7969 76.6172 14.7969C76.1328 14.7969 75.694 14.9193 75.3008 15.1641C74.9102 15.4089 74.599 15.7695 74.3672 16.2461C74.138 16.7227 74.0234 17.3073 74.0234 18C74.0234 18.6927 74.138 19.2773 74.3672 19.7539C74.599 20.2305 74.9102 20.5911 75.3008 20.8359C75.694 21.0807 76.1328 21.2031 76.6172 21.2031C77.1016 21.2031 77.5391 21.0807 77.9297 20.8359C78.3229 20.5911 78.6341 20.2305 78.8633 19.7539C79.0951 19.2773 79.2109 18.6927 79.2109 18ZM85.3525 22V22.8594H80.3525V22H85.3525ZM92.6543 14V22H91.7168L87.3574 15.7187H87.2793V22H86.3105V14H87.248L91.623 20.2969H91.7012V14H92.6543ZM99.8428 14H100.812V19.2969C100.812 19.8437 100.683 20.332 100.425 20.7617C100.17 21.1888 99.8089 21.526 99.3428 21.7734C98.8766 22.0182 98.3298 22.1406 97.7021 22.1406C97.0745 22.1406 96.5277 22.0182 96.0615 21.7734C95.5954 21.526 95.2334 21.1888 94.9756 20.7617C94.7204 20.332 94.5928 19.8437 94.5928 19.2969V14H95.5615V19.2188C95.5615 19.6094 95.6475 19.957 95.8193 20.2617C95.9912 20.5638 96.236 20.8021 96.5537 20.9766C96.874 21.1484 97.2568 21.2344 97.7021 21.2344C98.1475 21.2344 98.5303 21.1484 98.8506 20.9766C99.1709 20.8021 99.4157 20.5638 99.585 20.2617C99.7568 19.957 99.8428 19.6094 99.8428 19.2188V14ZM102.746 22V14H107.574V14.8594H103.715V17.5625H107.324V18.4219H103.715V21.1406H107.637V22H102.746ZM109.648 14L112.023 20.7344H112.117L114.492 14H115.508L112.57 22H111.57L108.633 14H109.648ZM123.128 18C123.128 18.8437 122.976 19.5729 122.671 20.1875C122.366 20.8021 121.948 21.276 121.417 21.6094C120.886 21.9427 120.279 22.1094 119.597 22.1094C118.914 22.1094 118.308 21.9427 117.776 21.6094C117.245 21.276 116.827 20.8021 116.522 20.1875C116.218 19.5729 116.065 18.8437 116.065 18C116.065 17.1562 116.218 16.4271 116.522 15.8125C116.827 15.1979 117.245 14.724 117.776 14.3906C118.308 14.0573 118.914 13.8906 119.597 13.8906C120.279 13.8906 120.886 14.0573 121.417 14.3906C121.948 14.724 122.366 15.1979 122.671 15.8125C122.976 16.4271 123.128 17.1562 123.128 18ZM122.19 18C122.19 17.3073 122.075 16.7227 121.843 16.2461C121.614 15.7695 121.302 15.4089 120.909 15.1641C120.519 14.9193 120.081 14.7969 119.597 14.7969C119.112 14.7969 118.674 14.9193 118.28 15.1641C117.89 15.4089 117.578 15.7695 117.347 16.2461C117.118 16.7227 117.003 17.3073 117.003 18C117.003 18.6927 117.118 19.2773 117.347 19.7539C117.578 20.2305 117.89 20.5911 118.28 20.8359C118.674 21.0807 119.112 21.2031 119.597 21.2031C120.081 21.2031 120.519 21.0807 120.909 20.8359C121.302 20.5911 121.614 20.2305 121.843 19.7539C122.075 19.2773 122.19 18.6927 122.19 18Z" fill="white"/>
<defs>
<filter id="filter0_d_20_519" x="50" y="139.995" width="1208" height="1208.01" filterUnits="userSpaceOnUse" color-interpolation-filters="sRGB">
<feFlood flood-opacity="0" result="BackgroundImageFix"/>
<feColorMatrix in="SourceAlpha" type="matrix" values="0 0 0 0 0 0 0 0 0 0 0 0 0 0 0 0 0 0 127 0" result="hardAlpha"/>
<feOffset dy="4"/>
<feGaussianBlur stdDeviation="2"/>
<feComposite in2="hardAlpha" operator="out"/>
<feColorMatrix type="matrix" values="0 0 0 0 0 0 0 0 0 0 0 0 0 0 0 0 0 0 0.25 0"/>
<feBlend mode="normal" in2="BackgroundImageFix" result="effect1_dropShadow_20_519"/>
<feBlend mode="normal" in="SourceGraphic" in2="effect1_dropShadow_20_519" result="shape"/>
</filter>
<filter id="filter1_d_20_519" x="706" y="805" width="398" height="398" filterUnits="userSpaceOnUse" color-interpolation-filters="sRGB">
<feFlood flood-opacity="0" result="BackgroundImageFix"/>
<feColorMatrix in="SourceAlpha" type="matrix" values="0 0 0 0 0 0 0 0 0 0 0 0 0 0 0 0 0 0 127 0" result="hardAlpha"/>
<feOffset dy="4"/>
<feGaussianBlur stdDeviation="2"/>
<feComposite in2="hardAlpha" operator="out"/>
<feColorMatrix type="matrix" values="0 0 0 0 0 0 0 0 0 0 0 0 0 0 0 0 0 0 0.25 0"/>
<feBlend mode="normal" in2="BackgroundImageFix" result="effect1_dropShadow_20_519"/>
<feBlend mode="normal" in="SourceGraphic" in2="effect1_dropShadow_20_519" result="shape"/>
</filter>
<filter id="filter2_d_20_519" x="1439" y="505" width="1570.06" height="490.952" filterUnits="userSpaceOnUse" color-interpolation-filters="sRGB">
<feFlood flood-opacity="0" result="BackgroundImageFix"/>
<feColorMatrix in="SourceAlpha" type="matrix" values="0 0 0 0 0 0 0 0 0 0 0 0 0 0 0 0 0 0 127 0" result="hardAlpha"/>
<feOffset dy="4"/>
<feGaussianBlur stdDeviation="2"/>
<feComposite in2="hardAlpha" operator="out"/>
<feColorMatrix type="matrix" values="0 0 0 0 0 0 0 0 0 0 0 0 0 0 0 0 0 0 0.25 0"/>
<feBlend mode="normal" in2="BackgroundImageFix" result="effect1_dropShadow_20_519"/>
<feBlend mode="normal" in="SourceGraphic" in2="effect1_dropShadow_20_519" result="shape"/>
</filter>
<linearGradient id="paint0_linear_20_519" x1="905" y1="805" x2="905" y2="1195" gradientUnits="userSpaceOnUse">
<stop offset="0.5625" stop-color="#EAB308"/>
</linearGradient>
</defs>
</svg>
