<svg width="2956" height="1200" viewBox="0 0 2956 1200" fill="none" xmlns="http://www.w3.org/2000/svg">
<g filter="url(#filter0_d_86_43)">
<path d="M1603.49 472.955C1601.36 454.962 1592.72 440.994 1577.56 431.051C1562.41 421.108 1543.83 416.137 1521.81 416.137C1505.71 416.137 1491.63 418.741 1479.55 423.949C1467.6 429.157 1458.25 436.319 1451.5 445.433C1444.87 454.548 1441.56 464.905 1441.56 476.506C1441.56 486.212 1443.86 494.557 1448.48 501.541C1453.22 508.407 1459.25 514.148 1466.59 518.764C1473.93 523.262 1481.62 526.991 1489.67 529.95C1497.72 532.791 1505.12 535.1 1511.87 536.875L1548.8 546.818C1558.27 549.304 1568.8 552.737 1580.41 557.117C1592.12 561.496 1603.31 567.474 1613.96 575.05C1624.74 582.507 1633.61 592.095 1640.6 603.814C1647.58 615.533 1651.07 629.912 1651.07 646.962C1651.07 666.612 1645.92 684.362 1635.63 700.232C1625.45 716.092 1610.53 728.692 1590.88 738.052C1571.35 747.402 1547.62 752.072 1519.68 752.072C1493.64 752.072 1471.09 747.872 1452.03 739.472C1433.09 731.062 1418.18 719.342 1407.29 704.312C1396.52 689.282 1390.42 671.822 1389 651.932H1434.45C1435.64 665.662 1440.25 677.022 1448.3 686.022C1456.47 694.902 1466.77 701.532 1479.2 705.912C1491.75 710.172 1505.24 712.302 1519.68 712.302C1536.49 712.302 1551.58 709.582 1564.96 704.132C1578.33 698.572 1588.93 690.872 1596.74 681.052C1604.55 671.112 1608.46 659.512 1608.46 646.252C1608.46 634.172 1605.09 624.352 1598.34 616.776C1591.59 609.2 1582.71 603.045 1571.71 598.31C1560.7 593.575 1548.8 589.432 1536.02 585.881L1491.27 573.097C1462.86 564.929 1440.37 553.27 1423.8 538.118C1407.23 522.967 1398.94 503.139 1398.94 478.637C1398.94 458.277 1404.45 440.521 1415.46 425.37C1426.58 410.1 1441.5 398.262 1460.2 389.858C1479.02 381.335 1500.03 377.074 1523.23 377.074C1546.67 377.074 1567.5 381.276 1585.73 389.681C1603.96 397.967 1618.4 409.33 1629.06 423.771C1639.83 438.213 1645.51 454.607 1646.1 472.955H1603.49ZM1784.69 581.62V745.682H1742.79V382.046H1784.69V515.568H1788.24C1794.64 501.482 1804.22 490.296 1817.01 482.01C1829.91 473.606 1847.07 469.404 1868.5 469.404C1887.08 469.404 1903.36 473.132 1917.33 480.59C1931.3 487.929 1942.13 499.233 1949.82 514.503C1957.63 529.655 1961.54 548.949 1961.54 572.387V745.682H1919.64V575.227C1919.64 553.566 1914.01 536.816 1902.77 524.979C1891.64 513.023 1876.19 507.046 1856.43 507.046C1842.7 507.046 1830.38 509.946 1819.49 515.746C1808.72 521.546 1800.2 530.01 1793.93 541.137C1787.77 552.263 1784.69 565.758 1784.69 581.62ZM2177.55 751.362C2151.27 751.362 2128.6 745.562 2109.54 733.962C2090.6 722.242 2075.98 705.912 2065.69 684.962C2055.51 663.892 2050.42 639.382 2050.42 611.449C2050.42 583.513 2055.51 558.892 2065.69 537.585C2075.98 516.16 2090.31 499.47 2108.65 487.514C2127.12 475.441 2148.66 469.404 2173.29 469.404C2187.49 469.404 2201.52 471.771 2215.37 476.506C2229.22 481.241 2241.82 488.935 2253.19 499.588C2264.55 510.123 2273.6 524.091 2280.35 541.492C2287.1 558.892 2290.47 580.317 2290.47 605.767V623.523H2080.25V587.301H2247.86C2247.86 571.913 2244.78 558.182 2238.63 546.108C2232.59 534.034 2223.95 524.505 2212.7 517.521C2201.58 510.538 2188.44 507.046 2173.29 507.046C2156.59 507.046 2142.15 511.189 2129.96 519.475C2117.89 527.642 2108.6 538.296 2102.09 551.435C2095.57 564.574 2092.32 578.66 2092.32 593.693V617.841C2092.32 638.442 2095.87 655.902 2102.97 670.222C2110.19 684.422 2120.2 695.252 2132.98 702.712C2145.76 710.052 2160.62 713.722 2177.55 713.722C2188.56 713.722 2198.5 712.182 2207.38 709.102C2216.37 705.912 2224.13 701.172 2230.64 694.902C2237.15 688.512 2242.18 680.582 2245.73 671.112L2286.21 682.472C2281.95 696.202 2274.79 708.272 2264.73 718.692C2254.67 728.992 2242.24 737.042 2227.44 742.842C2212.64 748.522 2196.01 751.362 2177.55 751.362ZM2421.12 382.046V745.682H2379.22V382.046H2421.12ZM2644.32 472.955V508.466H2497.3V472.955H2644.32ZM2541.33 745.682V435.313C2541.33 419.688 2545 406.667 2552.34 396.25C2559.68 385.833 2569.21 378.021 2580.93 372.813C2592.65 367.604 2605.02 365 2618.04 365C2628.34 365 2636.74 365.829 2643.25 367.486C2649.76 369.143 2654.62 370.682 2657.81 372.102L2645.74 408.324C2643.61 407.614 2640.65 406.726 2636.86 405.661C2633.19 404.595 2628.34 404.063 2622.3 404.063C2608.45 404.063 2598.45 407.555 2592.29 414.539C2586.26 421.522 2583.24 431.762 2583.24 445.256V745.682H2541.33ZM2755.03 847.952C2747.93 847.952 2741.6 847.362 2736.03 846.182C2730.47 845.112 2726.62 844.052 2724.49 842.982L2735.15 806.052C2745.33 808.652 2754.32 809.602 2762.13 808.892C2769.95 808.182 2776.87 804.692 2782.91 798.412C2789.06 792.262 2794.69 782.262 2799.78 768.412L2807.59 747.102L2706.74 472.955H2752.19L2827.48 690.282H2830.32L2905.6 472.955H2951.06L2835.29 785.452C2830.08 799.542 2823.63 811.202 2815.93 820.432C2808.24 829.782 2799.3 836.712 2789.12 841.212C2779.06 845.702 2767.7 847.952 2755.03 847.952Z" fill="#2B0C66"/>
<path d="M0 247.525C0 110.821 114.603 0 255.973 0H944.027C1085.4 0 1200 110.821 1200 247.525V952.475C1200 1089.18 1085.4 1200 944.027 1200H255.973C114.603 1200 0 1089.18 0 952.475V247.525Z" fill="#42129A"/>
<path fill-rule="evenodd" clip-rule="evenodd" d="M146 320C146 223.348 224.348 145 321 145C417.652 145 496 223.348 496 320C496 416.652 417.652 495 321 495C224.348 495 146 416.652 146 320ZM321 250C321 245.359 319.156 240.908 315.874 237.626C312.592 234.344 308.141 232.5 303.5 232.5C298.859 232.5 294.408 234.344 291.126 237.626C287.844 240.908 286 245.359 286 250V337.5C286 342.141 287.844 346.592 291.126 349.874C294.408 353.156 298.859 355 303.5 355H391C395.641 355 400.092 353.156 403.374 349.874C406.656 346.592 408.5 342.141 408.5 337.5C408.5 332.859 406.656 328.408 403.374 325.126C400.092 321.844 395.641 320 391 320H321V250Z" fill="#F97316"/>
<path fill-rule="evenodd" clip-rule="evenodd" d="M1017.87 146.398C1023.08 153.691 1026 163.58 1026 173.891C1026 184.202 1023.08 194.091 1017.87 201.383L809.762 492.848C807.012 496.701 803.747 499.757 800.153 501.842C796.559 503.927 792.708 505 788.818 505C784.928 505 781.076 503.927 777.483 501.842C773.889 499.757 770.624 496.701 767.874 492.848L664.476 348.062C661.825 344.475 659.709 340.184 658.254 335.44C656.799 330.695 656.033 325.593 656.001 320.429C655.969 315.266 656.672 310.146 658.068 305.367C659.464 300.588 661.525 296.246 664.132 292.595C666.739 288.944 669.839 286.056 673.251 284.101C676.664 282.146 680.32 281.162 684.006 281.207C687.693 281.252 691.336 282.324 694.724 284.362C698.111 286.4 701.175 289.363 703.736 293.077L788.809 412.224L978.592 146.398C981.171 142.785 984.232 139.918 987.602 137.962C990.972 136.007 994.584 135 998.232 135C1001.88 135 1005.49 136.007 1008.86 137.962C1012.23 139.918 1015.29 142.785 1017.87 146.398Z" fill="#22C55E"/>
<path d="M182.081 682.43C185.791 678.718 191.808 678.717 195.519 682.428L303.549 790.462C307.649 794.562 314.297 794.564 318.397 790.464L426.46 682.427C430.172 678.716 436.189 678.719 439.897 682.432L488.538 731.128C492.244 734.838 492.243 740.849 488.535 744.558L380.529 852.599C376.43 856.699 376.431 863.346 380.53 867.446L488.57 975.499C492.282 979.211 492.279 985.231 488.563 988.939L439.831 1037.59C436.12 1041.29 430.108 1041.29 426.4 1037.58L318.398 929.543C314.298 925.441 307.648 925.441 303.547 929.543L195.56 1037.58C191.851 1041.29 185.836 1041.29 182.125 1037.58L133.429 988.918C129.717 985.209 129.715 979.193 133.425 975.481L241.417 867.445C245.515 863.345 245.515 856.7 241.417 852.6L133.419 744.56C129.711 740.85 129.711 734.838 133.418 731.128L182.081 682.43Z" fill="#EF4444" stroke="black"/>
<g filter="url(#filter1_d_86_43)" transform="translate(0, -35)">
<path d="M850.99 991.722L756.466 1051.34C752.29 1054.13 747.925 1055.32 743.369 1054.92C738.814 1054.52 734.828 1052.93 731.412 1050.15C727.995 1047.37 725.338 1043.89 723.44 1039.73C721.542 1035.56 721.162 1030.89 722.301 1025.71L747.355 913.023L663.65 837.304C659.854 833.727 657.485 829.649 656.544 825.07C655.602 820.491 655.883 816.024 657.387 811.667C658.89 807.311 661.168 803.734 664.22 800.935C667.272 798.137 671.448 796.349 676.747 795.57L787.215 785.434L829.922 679.309C831.82 674.539 834.766 670.962 838.759 668.577C842.753 666.192 846.83 665 850.99 665C855.151 665 859.228 666.192 863.221 668.577C867.215 670.962 870.161 674.539 872.059 679.309L914.766 785.434L1025.23 795.57C1030.55 796.365 1034.72 798.153 1037.76 800.935C1040.8 803.718 1043.08 807.295 1044.59 811.667C1046.11 816.039 1046.4 820.515 1045.46 825.094C1044.52 829.673 1042.14 833.743 1038.33 837.304L954.625 913.023L979.68 1025.71C980.819 1030.87 980.439 1035.55 978.541 1039.73C976.643 1043.91 973.986 1047.38 970.569 1050.15C967.153 1052.92 963.167 1054.51 958.611 1054.92C954.056 1055.33 949.69 1054.14 945.514 1051.34L850.99 991.722Z" fill="url(#paint0_linear_86_43)"/>
</g>
<defs>
<filter id="filter0_d_86_43" x="1385" y="365" width="1570.06" height="490.952" filterUnits="userSpaceOnUse" color-interpolation-filters="sRGB">
<feFlood flood-opacity="0" result="BackgroundImageFix"/>
<feColorMatrix in="SourceAlpha" type="matrix" values="0 0 0 0 0 0 0 0 0 0 0 0 0 0 0 0 0 0 127 0" result="hardAlpha"/>
<feOffset dy="4"/>
<feGaussianBlur stdDeviation="2"/>
<feComposite in2="hardAlpha" operator="out"/>
<feColorMatrix type="matrix" values="0 0 0 0 0 0 0 0 0 0 0 0 0 0 0 0 0 0 0.25 0"/>
<feBlend mode="normal" in2="BackgroundImageFix" result="effect1_dropShadow_86_43"/>
<feBlend mode="normal" in="SourceGraphic" in2="effect1_dropShadow_86_43" result="shape"/>
</filter>
<filter id="filter1_d_86_43" x="652" y="665" width="398" height="398" filterUnits="userSpaceOnUse" color-interpolation-filters="sRGB">
<feFlood flood-opacity="0" result="BackgroundImageFix"/>
<feColorMatrix in="SourceAlpha" type="matrix" values="0 0 0 0 0 0 0 0 0 0 0 0 0 0 0 0 0 0 127 0" result="hardAlpha"/>
<feOffset dy="4"/>
<feGaussianBlur stdDeviation="2"/>
<feComposite in2="hardAlpha" operator="out"/>
<feColorMatrix type="matrix" values="0 0 0 0 0 0 0 0 0 0 0 0 0 0 0 0 0 0 0.25 0"/>
<feBlend mode="normal" in2="BackgroundImageFix" result="effect1_dropShadow_86_43"/>
<feBlend mode="normal" in="SourceGraphic" in2="effect1_dropShadow_86_43" result="shape"/>
</filter>
<linearGradient id="paint0_linear_86_43" x1="851" y1="665" x2="851" y2="1055" gradientUnits="userSpaceOnUse">
<stop offset="0.5625" stop-color="#EAB308"/>
</linearGradient>
</defs>
</svg>
