<svg width="4786" height="1896" viewBox="0 0 4786 1896" fill="none" xmlns="http://www.w3.org/2000/svg">
<g filter="url(#filter0_d_20_97)">
<path d="M334.132 592C334.132 453.929 446.061 342 584.132 342H1256.13C1394.2 342 1506.13 453.929 1506.13 592V1304C1506.13 1442.07 1394.2 1554 1256.13 1554H584.132C446.061 1554 334.132 1442.07 334.132 1304V592Z" fill="#4B10A3"/>
<path d="M584.132 342.5H1256.13C1393.93 342.5 1505.63 454.205 1505.63 592V1304C1505.63 1441.8 1393.93 1553.5 1256.13 1553.5H584.132C446.337 1553.5 334.632 1441.8 334.632 1304V592C334.632 454.205 446.337 342.5 584.132 342.5Z" stroke="black"/>
</g>
<path d="M632.666 888.779C608.075 842.817 621.178 816.491 640.071 791.677C660.763 764.502 666.115 737.616 666.115 737.616C666.115 737.616 682.401 756.61 675.873 786.333C704.616 757.604 710.06 711.808 705.7 694.264C770.684 735.048 798.458 823.347 761.041 888.8C960.143 787.659 810.569 636.309 784.525 619.263C793.198 636.309 794.859 665.163 777.304 679.185C747.615 578.127 674.235 557.414 674.235 557.414C682.909 609.528 642.77 666.53 604.062 709.115C602.7 688.34 601.247 673.986 589.09 654.102C586.368 691.861 554.234 722.641 545.514 760.463C533.726 811.686 554.349 849.197 632.643 888.82L632.666 888.779Z" fill="#FF8800"/>
<path d="M1297.83 832.591L1192 723.137L1297.79 613.703L1243.42 557.414L1137.57 666.849L1031.75 557.414L977.358 613.703L1083.14 723.137L977.358 832.572L1031.79 888.82L1137.57 779.386L1243.36 888.82L1297.83 832.591Z" fill="#FFEA05"/>
<path d="M718.694 1322.02C718.694 1326.41 717.006 1330.63 714.001 1333.73C710.996 1336.84 706.921 1338.59 702.671 1338.59C698.421 1338.59 694.346 1336.84 691.341 1333.73C688.336 1330.63 686.647 1326.41 686.647 1322.02V1272.3C686.647 1267.91 688.336 1263.7 691.341 1260.59C694.346 1257.48 698.421 1255.73 702.671 1255.73C706.921 1255.73 710.996 1257.48 714.001 1260.59C717.006 1263.7 718.694 1267.91 718.694 1272.3V1322.02ZM718.694 1073.46C718.694 1077.86 717.006 1082.07 714.001 1085.18C710.996 1088.29 706.921 1090.03 702.671 1090.03C698.421 1090.03 694.346 1088.29 691.341 1085.18C688.336 1082.07 686.647 1077.86 686.647 1073.46V1023.75C686.647 1019.36 688.336 1015.14 691.341 1012.03C694.346 1008.93 698.421 1007.18 702.671 1007.18C706.921 1007.18 710.996 1008.93 714.001 1012.03C717.006 1015.14 718.694 1019.36 718.694 1023.75V1073.46ZM862.905 1172.88C862.905 1168.49 861.217 1164.27 858.212 1161.17C855.207 1158.06 851.132 1156.31 846.882 1156.31H798.812C794.562 1156.31 790.486 1158.06 787.481 1161.17C784.476 1164.27 782.788 1168.49 782.788 1172.88C782.788 1177.28 784.476 1181.49 787.481 1184.6C790.486 1187.71 794.562 1189.45 798.812 1189.45H846.882C851.132 1189.45 855.207 1187.71 858.212 1184.6C861.217 1181.49 862.905 1177.28 862.905 1172.88ZM606.53 1156.31C610.78 1156.31 614.856 1158.06 617.861 1161.17C620.866 1164.27 622.554 1168.49 622.554 1172.88C622.554 1177.28 620.866 1181.49 617.861 1184.6C614.856 1187.71 610.78 1189.45 606.53 1189.45H558.46C554.21 1189.45 550.135 1187.71 547.13 1184.6C544.125 1181.49 542.437 1177.28 542.437 1172.88C542.437 1168.49 544.125 1164.27 547.13 1161.17C550.135 1158.06 554.21 1156.31 558.46 1156.31H606.53ZM815.973 1290.05C818.977 1286.94 820.664 1282.73 820.664 1278.34C820.664 1273.94 818.977 1269.73 815.973 1266.62L781.987 1231.48C778.965 1228.46 774.917 1226.79 770.716 1226.82C766.515 1226.86 762.496 1228.61 759.525 1231.68C756.554 1234.75 754.869 1238.91 754.832 1243.25C754.796 1247.59 756.411 1251.78 759.33 1254.91L793.299 1290.05C794.788 1291.59 796.555 1292.81 798.5 1293.65C800.445 1294.48 802.53 1294.91 804.636 1294.91C806.742 1294.91 808.827 1294.48 810.772 1293.65C812.717 1292.81 814.484 1291.59 815.973 1290.05ZM646.012 1090.88C647.6 1092.39 648.876 1094.22 649.763 1096.26C650.65 1098.29 651.129 1100.5 651.173 1102.73C651.216 1104.96 650.822 1107.18 650.015 1109.25C649.207 1111.33 648.003 1113.21 646.475 1114.79C644.946 1116.36 643.125 1117.61 641.12 1118.44C639.115 1119.27 636.969 1119.67 634.809 1119.63C632.65 1119.58 630.522 1119.08 628.553 1118.16C626.585 1117.24 624.817 1115.92 623.355 1114.27L589.385 1079.16C586.379 1076.05 584.689 1071.84 584.687 1067.44C584.686 1063.05 586.373 1058.83 589.377 1055.72C592.382 1052.61 596.458 1050.87 600.708 1050.86C604.959 1050.86 609.036 1052.61 612.042 1055.71L646.012 1090.88ZM815.973 1055.71C812.968 1052.61 808.893 1050.86 804.644 1050.86C800.395 1050.86 796.32 1052.61 793.315 1055.71L759.33 1090.86C756.411 1093.98 754.796 1098.17 754.832 1102.52C754.869 1106.86 756.554 1111.02 759.525 1114.09C762.496 1117.16 766.515 1118.9 770.716 1118.94C774.917 1118.98 778.965 1117.31 781.987 1114.29L815.973 1079.16C817.462 1077.62 818.644 1075.79 819.451 1073.78C820.257 1071.77 820.672 1069.62 820.672 1067.44C820.672 1065.26 820.257 1063.1 819.451 1061.09C818.644 1059.08 817.462 1057.25 815.973 1055.71ZM623.371 1231.48C624.841 1229.86 626.61 1228.56 628.574 1227.66C630.538 1226.77 632.656 1226.28 634.803 1226.25C636.949 1226.22 639.081 1226.63 641.071 1227.46C643.061 1228.3 644.868 1229.54 646.386 1231.11C647.903 1232.68 649.1 1234.55 649.906 1236.6C650.711 1238.66 651.108 1240.87 651.073 1243.09C651.038 1245.31 650.572 1247.5 649.703 1249.53C648.833 1251.56 647.578 1253.39 646.012 1254.91L612.042 1290.05C609.038 1293.16 604.962 1294.91 600.711 1294.91C596.461 1294.91 592.384 1293.17 589.377 1290.06C586.371 1286.95 584.681 1282.74 584.679 1278.34C584.678 1273.95 586.365 1269.73 589.369 1266.62L623.371 1231.48Z" fill="#FF6B6B"/>
<path fill-rule="evenodd" clip-rule="evenodd" d="M1290.79 1017.39C1295.29 1023.92 1297.83 1032.78 1297.83 1042.01C1297.83 1051.25 1295.29 1060.11 1290.79 1066.64L1110.54 1327.7C1108.15 1331.15 1105.33 1333.89 1102.21 1335.76C1099.1 1337.62 1095.77 1338.59 1092.4 1338.59C1089.03 1338.59 1085.69 1337.62 1082.58 1335.76C1079.47 1333.89 1076.64 1331.15 1074.26 1327.7L984.7 1198.02C982.403 1194.8 980.571 1190.96 979.311 1186.71C978.05 1182.46 977.387 1177.89 977.359 1173.27C977.332 1168.64 977.94 1164.06 979.149 1159.78C980.358 1155.5 982.144 1151.61 984.402 1148.34C986.66 1145.07 989.345 1142.48 992.3 1140.73C995.256 1138.98 998.423 1138.1 1001.62 1138.14C1004.81 1138.18 1007.96 1139.14 1010.9 1140.96C1013.83 1142.79 1016.49 1145.44 1018.7 1148.77L1092.39 1255.49L1256.77 1017.39C1259 1014.15 1261.65 1011.58 1264.57 1009.83C1267.49 1008.08 1270.62 1007.18 1273.78 1007.18C1276.94 1007.18 1280.06 1008.08 1282.98 1009.83C1285.9 1011.58 1288.55 1014.15 1290.79 1017.39Z" fill="#4CAF50"/>
<path d="M1800.9 849.273C1798.77 831.28 1790.13 817.312 1774.97 807.369C1759.82 797.426 1741.24 792.455 1719.22 792.455C1703.12 792.455 1689.04 795.059 1676.96 800.267C1665.01 805.475 1655.66 812.637 1648.91 821.751C1642.28 830.866 1638.97 841.223 1638.97 852.824C1638.97 862.53 1641.27 870.875 1645.89 877.859C1650.63 884.725 1656.66 890.466 1664 895.082C1671.34 899.58 1679.03 903.309 1687.08 906.268C1695.13 909.109 1702.53 911.418 1709.28 913.193L1746.21 923.136C1755.68 925.622 1766.21 929.055 1777.82 933.435C1789.53 937.814 1800.72 943.792 1811.37 951.368C1822.15 958.825 1831.02 968.413 1838.01 980.132C1844.99 991.851 1848.48 1006.23 1848.48 1023.28C1848.48 1042.93 1843.33 1060.68 1833.04 1076.55C1822.86 1092.41 1807.94 1105.01 1788.29 1114.37C1768.76 1123.72 1745.03 1128.39 1717.09 1128.39C1691.05 1128.39 1668.5 1124.19 1649.44 1115.79C1630.5 1107.38 1615.59 1095.66 1604.7 1080.63C1593.93 1065.6 1587.83 1048.14 1586.41 1028.25H1631.86C1633.05 1041.98 1637.66 1053.34 1645.71 1062.34C1653.88 1071.22 1664.18 1077.85 1676.61 1082.23C1689.16 1086.49 1702.65 1088.62 1717.09 1088.62C1733.9 1088.62 1748.99 1085.9 1762.37 1080.45C1775.74 1074.89 1786.34 1067.19 1794.15 1057.37C1801.96 1047.43 1805.87 1035.83 1805.87 1022.57C1805.87 1010.49 1802.5 1000.67 1795.75 993.094C1789 985.518 1780.12 979.363 1769.12 974.628C1758.11 969.893 1746.21 965.75 1733.43 962.199L1688.68 949.415C1660.27 941.247 1637.78 929.588 1621.21 914.436C1604.64 899.285 1596.35 879.457 1596.35 854.955C1596.35 834.595 1601.86 816.839 1612.87 801.688C1623.99 786.418 1638.91 774.58 1657.61 766.176C1676.43 757.653 1697.44 753.392 1720.64 753.392C1744.08 753.392 1764.91 757.594 1783.14 765.999C1801.37 774.285 1815.81 785.648 1826.47 800.089C1837.24 814.531 1842.92 830.925 1843.51 849.273H1800.9ZM1982.1 957.938V1122H1940.2V758.364H1982.1V891.886H1985.65C1992.05 877.8 2001.63 866.614 2014.42 858.328C2027.32 849.924 2044.48 845.722 2065.91 845.722C2084.49 845.722 2100.77 849.45 2114.74 856.908C2128.71 864.247 2139.54 875.551 2147.23 890.821C2155.04 905.973 2158.95 925.267 2158.95 948.705V1122H2117.05V951.545C2117.05 929.884 2111.42 913.134 2100.18 901.297C2089.05 889.341 2073.6 883.364 2053.84 883.364C2040.11 883.364 2027.79 886.264 2016.9 892.064C2006.13 897.864 1997.61 906.328 1991.34 917.455C1985.18 928.581 1982.1 942.076 1982.1 957.938ZM2374.96 1127.68C2348.68 1127.68 2326.01 1121.88 2306.95 1110.28C2288.01 1098.56 2273.39 1082.23 2263.1 1061.28C2252.92 1040.21 2247.83 1015.7 2247.83 987.767C2247.83 959.831 2252.92 935.21 2263.1 913.903C2273.39 892.478 2287.72 875.788 2306.06 863.832C2324.53 851.759 2346.07 845.722 2370.7 845.722C2384.9 845.722 2398.93 848.089 2412.78 852.824C2426.63 857.559 2439.23 865.253 2450.6 875.906C2461.96 886.441 2471.01 900.409 2477.76 917.81C2484.51 935.21 2487.88 956.635 2487.88 982.085V999.841H2277.66V963.619H2445.27C2445.27 948.231 2442.19 934.5 2436.04 922.426C2430 910.352 2421.36 900.823 2410.11 893.839C2398.99 886.856 2385.85 883.364 2370.7 883.364C2354 883.364 2339.56 887.507 2327.37 895.793C2315.3 903.96 2306.01 914.614 2299.5 927.753C2292.98 940.892 2289.73 954.978 2289.73 970.011V994.159C2289.73 1014.76 2293.28 1032.22 2300.38 1046.54C2307.6 1060.74 2317.61 1071.57 2330.39 1079.03C2343.17 1086.37 2358.03 1090.04 2374.96 1090.04C2385.97 1090.04 2395.91 1088.5 2404.79 1085.42C2413.78 1082.23 2421.54 1077.49 2428.05 1071.22C2434.56 1064.83 2439.59 1056.9 2443.14 1047.43L2483.62 1058.79C2479.36 1072.52 2472.2 1084.59 2462.14 1095.01C2452.08 1105.31 2439.65 1113.36 2424.85 1119.16C2410.05 1124.84 2393.42 1127.68 2374.96 1127.68ZM2618.53 758.364V1122H2576.63V758.364H2618.53ZM2841.73 849.273V884.784H2694.71V849.273H2841.73ZM2738.74 1122V811.631C2738.74 796.006 2742.41 782.985 2749.75 772.568C2757.09 762.151 2766.62 754.339 2778.34 749.131C2790.06 743.922 2802.43 741.318 2815.45 741.318C2825.75 741.318 2834.15 742.147 2840.66 743.804C2847.17 745.461 2852.03 747 2855.22 748.42L2843.15 784.642C2841.02 783.932 2838.06 783.044 2834.27 781.979C2830.6 780.913 2825.75 780.381 2819.71 780.381C2805.86 780.381 2795.86 783.873 2789.7 790.857C2783.67 797.84 2780.65 808.08 2780.65 821.574V1122H2738.74ZM2952.44 1224.27C2945.34 1224.27 2939.01 1223.68 2933.44 1222.5C2927.88 1221.43 2924.03 1220.37 2921.9 1219.3L2932.56 1182.37C2942.74 1184.97 2951.73 1185.92 2959.54 1185.21C2967.36 1184.5 2974.28 1181.01 2980.32 1174.73C2986.47 1168.58 2992.1 1158.58 2997.19 1144.73L3005 1123.42L2904.15 849.273H2949.6L3024.89 1066.6H3027.73L3103.01 849.273H3148.47L3032.7 1161.77C3027.49 1175.86 3021.04 1187.52 3013.34 1196.75C3005.65 1206.1 2996.71 1213.03 2986.53 1217.53C2976.47 1222.02 2965.11 1224.27 2952.44 1224.27Z" fill="black"/>
<defs>
<filter id="filter0_d_20_97" x="330.132" y="342" width="1180" height="1220" filterUnits="userSpaceOnUse" color-interpolation-filters="sRGB">
<feFlood flood-opacity="0" result="BackgroundImageFix"/>
<feColorMatrix in="SourceAlpha" type="matrix" values="0 0 0 0 0 0 0 0 0 0 0 0 0 0 0 0 0 0 127 0" result="hardAlpha"/>
<feOffset dy="4"/>
<feGaussianBlur stdDeviation="2"/>
<feComposite in2="hardAlpha" operator="out"/>
<feColorMatrix type="matrix" values="0 0 0 0 0 0 0 0 0 0 0 0 0 0 0 0 0 0 0.25 0"/>
<feBlend mode="normal" in2="BackgroundImageFix" result="effect1_dropShadow_20_97"/>
<feBlend mode="normal" in="SourceGraphic" in2="effect1_dropShadow_20_97" result="shape"/>
</filter>
</defs>
</svg>
