<svg viewBox="1385 355 1575 510" fill="none" xmlns="http://www.w3.org/2000/svg" aria-hidden="true">
  <path d="M1603.49 472.955C1601.36 454.962 1592.72 440.994 1577.56 431.051C1562.41 421.108 1543.83 416.137 1521.81 416.137C1505.71 416.137 1491.63 418.741 1479.55 423.949C1467.6 429.157 1458.25 436.319 1451.5 445.433C1444.87 454.548 1441.56 464.905 1441.56 476.506C1441.56 486.212 1443.86 494.557 1448.48 501.541C1453.22 508.407 1459.25 514.148 1466.59 518.764C1473.93 523.262 1481.62 526.991 1489.67 529.95C1497.72 532.791 1505.12 535.1 1511.87 536.875L1548.8 546.818C1558.27 549.304 1568.8 552.737 1580.41 557.117C1592.12 561.496 1603.31 567.474 1613.96 575.05C1624.74 582.507 1633.61 592.095 1640.6 603.814C1647.58 615.533 1651.07 629.912 1651.07 646.962C1651.07 666.612 1645.92 684.362 1635.63 700.232C1625.45 716.092 1610.53 728.692 1590.88 738.052C1571.35 747.402 1547.62 752.072 1519.68 752.072C1493.64 752.072 1471.09 747.872 1452.03 739.472C1433.09 731.062 1418.18 719.342 1407.29 704.312C1396.52 689.282 1390.42 671.822 1389 651.932H1434.45C1435.64 665.662 1440.25 677.022 1448.3 686.022C1456.47 694.902 1466.77 701.532 1479.2 705.912C1491.75 710.172 1505.24 712.302 1519.68 712.302C1536.49 712.302 1551.58 709.582 1564.96 704.132C1578.33 698.572 1588.93 690.872 1596.74 681.052C1604.55 671.112 1608.46 659.512 1608.46 646.252C1608.46 634.172 1605.09 624.352 1598.34 616.776C1591.59 609.2 1582.71 603.045 1571.71 598.31C1560.7 593.575 1548.8 589.432 1536.02 585.881L1491.27 573.097C1462.86 564.929 1440.37 553.27 1423.8 538.118C1407.23 522.967 1398.94 503.139 1398.94 478.637C1398.94 458.277 1404.45 440.521 1415.46 425.37C1426.58 410.1 1441.5 398.262 1460.2 389.858C1479.02 381.335 1500.03 377.074 1523.23 377.074C1546.67 377.074 1567.5 381.276 1585.73 389.681C1603.96 397.967 1618.4 409.33 1629.06 423.771C1639.83 438.213 1645.51 454.607 1646.1 472.955H1603.49ZM1784.69 581.62V745.682H1742.79V382.046H1784.69V515.568H1788.24C1794.64 501.482 1804.22 490.296 1817.01 482.01C1829.91 473.606 1847.07 469.404 1868.5 469.404C1887.08 469.404 1903.36 473.132 1917.33 480.59C1931.3 487.929 1942.13 499.233 1949.82 514.503C1957.63 529.655 1961.54 548.949 1961.54 572.387V745.682H1919.64V575.227C1919.64 553.566 1914.01 536.816 1902.77 524.979C1891.64 513.023 1876.19 507.046 1856.43 507.046C1842.7 507.046 1830.38 509.946 1819.49 515.746C1808.72 521.546 1800.2 530.01 1793.93 541.137C1787.77 552.263 1784.69 565.758 1784.69 581.62ZM2177.55 751.362C2151.27 751.362 2128.6 745.562 2109.54 733.962C2090.6 722.242 2075.98 705.912 2065.69 684.962C2055.51 663.892 2050.42 639.382 2050.42 611.449C2050.42 583.513 2055.51 558.892 2065.69 537.585C2075.98 516.16 2090.31 499.47 2108.65 487.514C2127.12 475.441 2148.66 469.404 2173.29 469.404C2187.49 469.404 2201.52 471.771 2215.37 476.506C2229.22 481.241 2241.82 488.935 2253.19 499.588C2264.55 510.123 2273.6 524.091 2280.35 541.492C2287.1 558.892 2290.47 580.317 2290.47 605.767V623.523H2080.25V587.301H2247.86C2247.86 571.913 2244.78 558.182 2238.63 546.108C2232.59 534.034 2223.95 524.505 2212.7 517.521C2201.58 510.538 2188.44 507.046 2173.29 507.046C2156.59 507.046 2142.15 511.189 2129.96 519.475C2117.89 527.642 2108.6 538.296 2102.09 551.435C2095.57 564.574 2092.32 578.66 2092.32 593.693V617.841C2092.32 638.442 2095.87 655.902 2102.97 670.222C2110.19 684.422 2120.2 695.252 2132.98 702.712C2145.76 710.052 2160.62 713.722 2177.55 713.722C2188.56 713.722 2198.5 712.182 2207.38 709.102C2216.37 705.912 2224.13 701.172 2230.64 694.902C2237.15 688.512 2242.18 680.582 2245.73 671.112L2286.21 682.472C2281.95 696.202 2274.79 708.272 2264.73 718.692C2254.67 728.992 2242.24 737.042 2227.44 742.842C2212.64 748.522 2196.01 751.362 2177.55 751.362ZM2421.12 382.046V745.682H2379.22V382.046H2421.12ZM2644.32 472.955V508.466H2497.3V472.955H2644.32ZM2541.33 745.682V435.313C2541.33 419.688 2545 406.667 2552.34 396.25C2559.68 385.833 2569.21 378.021 2580.93 372.813C2592.65 367.604 2605.02 365 2618.04 365C2628.34 365 2636.74 365.829 2643.25 367.486C2649.76 369.143 2654.62 370.682 2657.81 372.102L2645.74 408.324C2643.61 407.614 2640.65 406.726 2636.86 405.661C2633.19 404.595 2628.34 404.063 2622.3 404.063C2608.45 404.063 2598.45 407.555 2592.29 414.539C2586.26 421.522 2583.24 431.762 2583.24 445.256V745.682H2541.33ZM2755.03 847.952C2747.93 847.952 2741.6 847.362 2736.03 846.182C2730.47 845.112 2726.62 844.052 2724.49 842.982L2735.15 806.052C2745.33 808.652 2754.32 809.602 2762.13 808.892C2769.95 808.182 2776.87 804.692 2782.91 798.412C2789.06 792.262 2794.69 782.262 2799.78 768.412L2807.59 747.102L2706.74 472.955H2752.19L2827.48 690.282H2830.32L2905.6 472.955H2951.06L2835.29 785.452C2830.08 799.542 2823.63 811.202 2815.93 820.432C2808.24 829.782 2799.3 836.712 2789.12 841.212C2779.06 845.702 2767.7 847.952 2755.03 847.952Z" fill="#2B0C66"/>
</svg>
