<svg width="331" height="331" viewBox="0 0 331 331" fill="none" xmlns="http://www.w3.org/2000/svg">
<path d="M165 302.914C158.274 302.888 153.685 302.349 149.595 301.3C145.396 300.224 141.703 298.61 136.724 296.435C100.092 280.447 41.8752 242.825 41.875 165.376V152.069L165 111.027V302.914Z" fill="#16a34a" stroke="#16a34a"/>
<path opacity="0.5" d="M287.125 153.51V165.376C287.125 241.604 229.893 278.694 193.476 294.602C188.467 296.79 184.927 298.334 180.914 299.363C177.438 300.254 173.536 300.774 168 300.891V113.802L287.125 153.51ZM163 108.531L43.875 148.239V143.667C43.875 121.59 43.8764 105.134 44.5234 93.2632C44.8468 87.3303 45.3276 82.6279 46.0293 78.9897C46.7389 75.3105 47.6332 72.9511 48.6338 71.5269L48.6348 71.5259C49.6251 70.1153 51.5258 68.5025 54.7363 66.6382C57.911 64.7947 62.1618 62.8193 67.627 60.5981C78.562 56.154 94.0314 50.8539 114.798 43.7407L114.797 43.7397L122.696 41.0522L122.701 41.0503C142.769 34.1731 153.14 30.6574 163 30.1499V108.531Z" fill="#16a34a" stroke="#16a34a" stroke-width="5"/>
<path d="M166 28.0884C176.921 28.1967 187.63 31.8533 208.947 39.1587H208.948L216.85 41.8472V41.8481C237.591 48.946 253.126 54.2675 264.126 58.7397C269.625 60.9756 273.975 62.9935 277.268 64.9067C280.568 66.8241 282.765 68.6131 284.003 70.3765C285.246 72.1453 286.206 74.8332 286.935 78.6089C287.661 82.3763 288.148 87.181 288.474 93.1489C289.124 105.086 289.125 121.609 289.125 143.667V151.014L166 109.972V28.0884Z" fill="#16a34a" stroke="#16a34a"/>
</svg>
