<svg viewBox="0 0 1200 1200" fill="none" xmlns="http://www.w3.org/2000/svg">
  <path d="M0 247.525C0 110.821 114.603 0 255.973 0H944.027C1085.4 0 1200 110.821 1200 247.525V952.475C1200 1089.18 1085.4 1200 944.027 1200H255.973C114.603 1200 0 1089.18 0 952.475V247.525Z" fill="#42129A"/>
  <path fill-rule="evenodd" clip-rule="evenodd" d="M146 320C146 223.348 224.348 145 321 145C417.652 145 496 223.348 496 320C496 416.652 417.652 495 321 495C224.348 495 146 416.652 146 320ZM321 250C321 245.359 319.156 240.908 315.874 237.626C312.592 234.344 308.141 232.5 303.5 232.5C298.859 232.5 294.408 234.344 291.126 237.626C287.844 240.908 286 245.359 286 250V337.5C286 342.141 287.844 346.592 291.126 349.874C294.408 353.156 298.859 355 303.5 355H391C395.641 355 400.092 353.156 403.374 349.874C406.656 346.592 408.5 342.141 408.5 337.5C408.5 332.859 406.656 328.408 403.374 325.126C400.092 321.844 395.641 320 391 320H321V250Z" fill="#F97316"/>
  <path fill-rule="evenodd" clip-rule="evenodd" d="M1017.87 146.398C1023.08 153.691 1026 163.58 1026 173.891C1026 184.202 1023.08 194.091 1017.87 201.383L809.762 492.848C807.012 496.701 803.747 499.757 800.153 501.842C796.559 503.927 792.708 505 788.818 505C784.928 505 781.076 503.927 777.483 501.842C773.889 499.757 770.624 496.701 767.874 492.848L664.476 348.062C661.825 344.475 659.709 340.184 658.254 335.44C656.799 330.695 656.033 325.593 656.001 320.429C655.969 315.266 656.672 310.146 658.068 305.367C659.464 300.588 661.525 296.246 664.132 292.595C666.739 288.944 669.839 286.056 673.251 284.101C676.664 282.146 680.32 281.162 684.006 281.207C687.693 281.252 691.336 282.324 694.724 284.362C698.111 286.4 701.175 289.363 703.736 293.077L788.809 412.224L978.592 146.398C981.171 142.785 984.232 139.918 987.602 137.962C990.972 136.007 994.584 135 998.232 135C1001.88 135 1005.49 136.007 1008.86 137.962C1012.23 139.918 1015.29 142.785 1017.87 146.398Z" fill="#22C55E"/>
  <path d="M182.081 682.43C185.791 678.718 191.808 678.717 195.519 682.428L303.549 790.462C307.649 794.562 314.297 794.564 318.397 790.464L426.46 682.427C430.172 678.716 436.189 678.719 439.897 682.432L488.538 731.128C492.244 734.838 492.243 740.849 488.535 744.558L380.529 852.599C376.43 856.699 376.431 863.346 380.53 867.446L488.57 975.499C492.282 979.211 492.279 985.231 488.563 988.939L439.831 1037.59C436.12 1041.29 430.108 1041.29 426.4 1037.58L318.398 929.543C314.298 925.441 307.648 925.441 303.547 929.543L195.56 1037.58C191.851 1041.29 185.836 1041.29 182.125 1037.58L133.429 988.918C129.717 985.209 129.715 979.193 133.425 975.481L241.417 867.445C245.515 863.345 245.515 856.7 241.417 852.6L133.419 744.56C129.711 740.85 129.711 734.838 133.418 731.128L182.081 682.43Z" fill="#EF4444" stroke="black"/>
  <path d="M850.99 956.722L756.466 1016.34C752.29 1019.13 747.925 1020.32 743.369 1020.92C738.814 1020.52 734.828 1018.93 731.412 1016.15C727.995 1013.37 725.338 1009.89 723.44 1005.73C721.542 1001.56 721.162 996.89 722.301 991.71L747.355 879.023L663.65 803.304C659.854 799.727 657.485 795.649 656.544 791.07C655.602 786.491 655.883 782.024 657.387 777.667C658.89 773.311 661.168 769.734 664.22 766.935C667.272 764.137 671.448 762.349 676.747 761.57L787.215 751.434L829.922 645.309C831.82 640.539 834.766 636.962 838.759 634.577C842.753 632.192 846.83 631 850.99 631C855.151 631 859.228 632.192 863.221 634.577C867.215 636.962 870.161 640.539 872.059 645.309L914.766 751.434L1025.23 761.57C1030.55 762.365 1034.72 764.153 1037.76 766.935C1040.8 769.718 1043.08 773.295 1044.59 777.667C1046.11 782.039 1046.4 786.515 1045.46 791.094C1044.52 795.673 1042.14 799.743 1038.33 803.304L954.625 879.023L979.68 991.71C980.819 996.87 980.439 1011.55 978.541 1015.73C976.643 1019.91 973.986 1023.38 970.569 1026.15C967.153 1028.92 963.167 1030.51 958.611 1030.92C954.056 1031.33 949.69 1030.14 945.514 1027.34L850.99 967.722Z" fill="#EAB308"/>
</svg>
