<svg width="4142" height="1976" viewBox="0 0 4142 1976" fill="none" xmlns="http://www.w3.org/2000/svg">
<path d="M40 42.0001C40 40.8955 40.8954 40 42 40H4100C4101.1 40 4102 40.8954 4102 42V1934C4102 1935.1 4101.1 1936 4100 1936H42.0001C40.8955 1936 40 1935.1 40 1934V42.0001Z" fill="white"/>
<path d="M42 40V41H4100V40V39H42V40ZM4102 42H4101V1934H4102H4103V42H4102ZM4100 1936V1935H42.0001V1936V1937H4100V1936ZM40 1934H41V42.0001H40H39V1934H40ZM42.0001 1936V1935C41.4478 1935 41 1934.55 41 1934H40H39C39 1935.66 40.3433 1937 42.0001 1937V1936ZM4102 1934H4101C4101 1934.55 4100.55 1935 4100 1935V1936V1937C4101.66 1937 4103 1935.66 4103 1934H4102ZM4100 40V41C4100.55 41 4101 41.4478 4101 42H4102H4103C4103 40.3431 4101.66 39 4100 39V40ZM42 40V39C40.3431 39 39 40.3432 39 42.0001H40H41C41 41.4477 41.4478 41 42 41V40Z" fill="black" fill-opacity="0.1"/>
<g filter="url(#filter0_d_2_2)">
<path d="M518 685C518 546.929 629.929 435 768 435H1292C1430.07 435 1542 546.929 1542 685V1209C1542 1347.07 1430.07 1459 1292 1459H768C629.929 1459 518 1347.07 518 1209V685Z" fill="#4B10A3"/>
<path d="M768 435.5H1292C1429.8 435.5 1541.5 547.205 1541.5 685V1209C1541.5 1346.8 1429.8 1458.5 1292 1458.5H768C630.205 1458.5 518.5 1346.8 518.5 1209V685C518.5 547.205 630.205 435.5 768 435.5Z" stroke="black"/>
</g>
<path d="M778.835 896.965C757.35 858.132 768.798 835.89 785.305 814.925C803.385 791.965 808.061 769.25 808.061 769.25C808.061 769.25 822.29 785.298 816.586 810.41C841.7 786.138 846.456 747.445 842.647 732.623C899.424 767.08 923.691 841.682 890.999 896.982C1064.96 811.53 934.272 683.657 911.517 669.255C919.096 683.657 920.547 708.035 905.209 719.882C879.269 634.5 815.155 617 815.155 617C822.734 661.03 787.663 709.19 753.843 745.17C752.654 727.618 751.384 715.49 740.762 698.69C738.384 730.593 710.308 756.598 702.689 788.553C692.39 831.83 710.409 863.522 778.815 897L778.835 896.965Z" fill="#FF8800"/>
<path d="M1360 849.493L1267.54 757.017L1359.97 664.557L1312.46 617L1219.98 709.459L1127.52 617L1080 664.557L1172.43 757.017L1080 849.476L1127.56 897L1219.98 804.541L1312.41 897L1360 849.493Z" fill="#FFEA05"/>
<path d="M854 1263C854 1266.71 852.525 1270.27 849.899 1272.9C847.274 1275.53 843.713 1277 840 1277C836.287 1277 832.726 1275.53 830.101 1272.9C827.475 1270.27 826 1266.71 826 1263V1221C826 1217.29 827.475 1213.73 830.101 1211.1C832.726 1208.47 836.287 1207 840 1207C843.713 1207 847.274 1208.47 849.899 1211.1C852.525 1213.73 854 1217.29 854 1221V1263ZM854 1053C854 1056.71 852.525 1060.27 849.899 1062.9C847.274 1065.53 843.713 1067 840 1067C836.287 1067 832.726 1065.53 830.101 1062.9C827.475 1060.27 826 1056.71 826 1053V1011C826 1007.29 827.475 1003.73 830.101 1001.1C832.726 998.475 836.287 997 840 997C843.713 997 847.274 998.475 849.899 1001.1C852.525 1003.73 854 1007.29 854 1011V1053ZM980 1137C980 1133.29 978.525 1129.73 975.9 1127.1C973.274 1124.47 969.713 1123 966 1123H924C920.287 1123 916.726 1124.47 914.1 1127.1C911.475 1129.73 910 1133.29 910 1137C910 1140.71 911.475 1144.27 914.1 1146.9C916.726 1149.53 920.287 1151 924 1151H966C969.713 1151 973.274 1149.53 975.9 1146.9C978.525 1144.27 980 1140.71 980 1137ZM756 1123C759.713 1123 763.274 1124.47 765.899 1127.1C768.525 1129.73 770 1133.29 770 1137C770 1140.71 768.525 1144.27 765.899 1146.9C763.274 1149.53 759.713 1151 756 1151H714C710.287 1151 706.726 1149.53 704.101 1146.9C701.475 1144.27 700 1140.71 700 1137C700 1133.29 701.475 1129.73 704.101 1127.1C706.726 1124.47 710.287 1123 714 1123H756ZM938.994 1235.99C941.619 1233.37 943.093 1229.81 943.093 1226.1C943.093 1222.38 941.619 1218.82 938.994 1216.2L909.3 1186.5C906.66 1183.95 903.123 1182.54 899.452 1182.57C895.782 1182.61 892.27 1184.08 889.675 1186.67C887.079 1189.27 885.606 1192.78 885.575 1196.45C885.543 1200.12 886.954 1203.66 889.504 1206.3L919.184 1235.99C920.484 1237.3 922.028 1238.33 923.728 1239.03C925.427 1239.74 927.249 1240.1 929.089 1240.1C930.929 1240.1 932.751 1239.74 934.45 1239.03C936.15 1238.33 937.694 1237.3 938.994 1235.99ZM790.496 1067.71C791.884 1068.99 792.999 1070.54 793.773 1072.26C794.548 1073.98 794.967 1075.84 795.005 1077.73C795.043 1079.62 794.698 1081.49 793.993 1083.24C793.288 1084.99 792.236 1086.58 790.9 1087.91C789.565 1089.25 787.973 1090.3 786.222 1091C784.47 1091.7 782.595 1092.05 780.708 1092.01C778.821 1091.96 776.962 1091.54 775.242 1090.77C773.522 1089.99 771.977 1088.87 770.7 1087.48L741.02 1057.82C738.393 1055.19 736.916 1051.63 736.915 1047.92C736.914 1044.2 738.388 1040.64 741.013 1038.01C743.638 1035.39 747.199 1033.91 750.913 1033.91C754.627 1033.91 758.189 1035.38 760.816 1038.01L790.496 1067.71ZM938.994 1038.01C936.369 1035.38 932.808 1033.91 929.096 1033.91C925.384 1033.91 921.823 1035.38 919.198 1038.01L889.504 1067.7C886.954 1070.34 885.543 1073.88 885.575 1077.55C885.606 1081.22 887.079 1084.73 889.675 1087.33C892.27 1089.92 895.782 1091.39 899.452 1091.43C903.123 1091.46 906.66 1090.05 909.3 1087.5L938.994 1057.82C940.296 1056.52 941.328 1054.97 942.033 1053.27C942.737 1051.57 943.1 1049.75 943.1 1047.91C943.1 1046.07 942.737 1044.25 942.033 1042.55C941.328 1040.85 940.296 1039.31 938.994 1038.01ZM770.714 1186.5C771.998 1185.14 773.544 1184.04 775.26 1183.28C776.976 1182.52 778.826 1182.12 780.702 1182.09C782.578 1182.06 784.44 1182.41 786.179 1183.11C787.917 1183.82 789.497 1184.86 790.823 1186.19C792.149 1187.52 793.194 1189.1 793.898 1190.84C794.601 1192.58 794.948 1194.44 794.918 1196.31C794.887 1198.19 794.48 1200.04 793.721 1201.76C792.961 1203.47 791.864 1205.02 790.496 1206.3L760.816 1235.99C758.191 1238.62 754.63 1240.1 750.916 1240.1C747.202 1240.1 743.64 1238.63 741.013 1236C738.386 1233.38 736.909 1229.81 736.908 1226.1C736.907 1222.39 738.381 1218.82 741.006 1216.2L770.714 1186.5Z" fill="#FF6B6B"/>
<path fill-rule="evenodd" clip-rule="evenodd" d="M1353.85 1005.63C1357.79 1011.14 1360 1018.63 1360 1026.43C1360 1034.23 1357.79 1041.72 1353.85 1047.24L1196.36 1267.8C1194.28 1270.72 1191.81 1273.03 1189.09 1274.61C1186.37 1276.19 1183.45 1277 1180.51 1277C1177.57 1277 1174.65 1276.19 1171.93 1274.61C1169.21 1273.03 1166.74 1270.72 1164.66 1267.8L1086.41 1158.24C1084.41 1155.52 1082.81 1152.27 1081.71 1148.68C1080.6 1145.09 1080.03 1141.23 1080 1137.32C1079.98 1133.42 1080.51 1129.54 1081.56 1125.93C1082.62 1122.31 1084.18 1119.02 1086.15 1116.26C1088.13 1113.5 1090.47 1111.31 1093.06 1109.83C1095.64 1108.35 1098.4 1107.61 1101.19 1107.64C1103.98 1107.68 1106.74 1108.49 1109.3 1110.03C1111.87 1111.57 1114.19 1113.82 1116.12 1116.63L1180.5 1206.79L1324.12 1005.63C1326.08 1002.89 1328.39 1000.72 1330.94 999.242C1333.49 997.762 1336.23 997 1338.99 997C1341.75 997 1344.48 997.762 1347.03 999.242C1349.58 1000.72 1351.9 1002.89 1353.85 1005.63Z" fill="#4CAF50"/>
<path d="M1956.9 854.273C1954.77 836.28 1946.13 822.312 1930.97 812.369C1915.82 802.426 1897.24 797.455 1875.22 797.455C1859.12 797.455 1845.04 800.059 1832.96 805.267C1821.01 810.475 1811.66 817.637 1804.91 826.751C1798.28 835.866 1794.97 846.223 1794.97 857.824C1794.97 867.53 1797.27 875.875 1801.89 882.859C1806.63 889.725 1812.66 895.466 1820 900.082C1827.34 904.58 1835.03 908.309 1843.08 911.268C1851.13 914.109 1858.53 916.418 1865.28 918.193L1902.21 928.136C1911.68 930.622 1922.21 934.055 1933.82 938.435C1945.53 942.814 1956.72 948.792 1967.37 956.368C1978.15 963.825 1987.02 973.413 1994.01 985.132C2000.99 996.851 2004.48 1011.23 2004.48 1028.28C2004.48 1047.93 1999.33 1065.68 1989.04 1081.55C1978.86 1097.41 1963.94 1110.01 1944.29 1119.37C1924.76 1128.72 1901.03 1133.39 1873.09 1133.39C1847.05 1133.39 1824.5 1129.19 1805.44 1120.79C1786.5 1112.38 1771.59 1100.66 1760.7 1085.63C1749.93 1070.6 1743.83 1053.14 1742.41 1033.25H1787.86C1789.05 1046.98 1793.66 1058.34 1801.71 1067.34C1809.88 1076.22 1820.18 1082.85 1832.61 1087.23C1845.16 1091.49 1858.65 1093.62 1873.09 1093.62C1889.9 1093.62 1904.99 1090.9 1918.37 1085.45C1931.74 1079.89 1942.34 1072.19 1950.15 1062.37C1957.96 1052.43 1961.87 1040.83 1961.87 1027.57C1961.87 1015.49 1958.5 1005.67 1951.75 998.094C1945 990.518 1936.12 984.363 1925.12 979.628C1914.11 974.893 1902.21 970.75 1889.43 967.199L1844.68 954.415C1816.27 946.247 1793.78 934.588 1777.21 919.436C1760.64 904.285 1752.35 884.457 1752.35 859.955C1752.35 839.595 1757.86 821.839 1768.87 806.688C1779.99 791.418 1794.91 779.58 1813.61 771.176C1832.43 762.653 1853.44 758.392 1876.64 758.392C1900.08 758.392 1920.91 762.594 1939.14 770.999C1957.37 779.285 1971.81 790.648 1982.47 805.089C1993.24 819.531 1998.92 835.925 1999.51 854.273H1956.9ZM2138.1 962.938V1127H2096.2V763.364H2138.1V896.886H2141.65C2148.05 882.8 2157.63 871.614 2170.42 863.328C2183.32 854.924 2200.48 850.722 2221.91 850.722C2240.49 850.722 2256.77 854.45 2270.74 861.908C2284.71 869.247 2295.54 880.551 2303.23 895.821C2311.04 910.973 2314.95 930.267 2314.95 953.705V1127H2273.05V956.545C2273.05 934.884 2267.42 918.134 2256.18 906.297C2245.05 894.341 2229.6 888.364 2209.84 888.364C2196.11 888.364 2183.79 891.264 2172.9 897.064C2162.13 902.864 2153.61 911.328 2147.34 922.455C2141.18 933.581 2138.1 947.076 2138.1 962.938ZM2530.96 1132.68C2504.68 1132.68 2482.01 1126.88 2462.95 1115.28C2444.01 1103.56 2429.39 1087.23 2419.1 1066.28C2408.92 1045.21 2403.83 1020.7 2403.83 992.767C2403.83 964.831 2408.92 940.21 2419.1 918.903C2429.39 897.478 2443.72 880.788 2462.06 868.832C2480.53 856.759 2502.07 850.722 2526.7 850.722C2540.9 850.722 2554.93 853.089 2568.78 857.824C2582.63 862.559 2595.23 870.253 2606.6 880.906C2617.96 891.441 2627.01 905.409 2633.76 922.81C2640.51 940.21 2643.88 961.635 2643.88 987.085V1004.84H2433.66V968.619H2601.27C2601.27 953.231 2598.19 939.5 2592.04 927.426C2586 915.352 2577.36 905.823 2566.11 898.839C2554.99 891.856 2541.85 888.364 2526.7 888.364C2510 888.364 2495.56 892.507 2483.37 900.793C2471.3 908.96 2462.01 919.614 2455.5 932.753C2448.98 945.892 2445.73 959.978 2445.73 975.011V999.159C2445.73 1019.76 2449.28 1037.22 2456.38 1051.54C2463.6 1065.74 2473.61 1076.57 2486.39 1084.03C2499.17 1091.37 2514.03 1095.04 2530.96 1095.04C2541.97 1095.04 2551.91 1093.5 2560.79 1090.42C2569.78 1087.23 2577.54 1082.49 2584.05 1076.22C2590.56 1069.83 2595.59 1061.9 2599.14 1052.43L2639.62 1063.79C2635.36 1077.52 2628.2 1089.59 2618.14 1100.01C2608.08 1110.31 2595.65 1118.36 2580.85 1124.16C2566.05 1129.84 2549.42 1132.68 2530.96 1132.68ZM2774.53 763.364V1127H2732.63V763.364H2774.53ZM2997.73 854.273V889.784H2850.71V854.273H2997.73ZM2894.74 1127V816.631C2894.74 801.006 2898.41 787.985 2905.75 777.568C2913.09 767.151 2922.62 759.339 2934.34 754.131C2946.06 748.922 2958.43 746.318 2971.45 746.318C2981.75 746.318 2990.15 747.147 2996.66 748.804C3003.17 750.461 3008.03 752 3011.22 753.42L2999.15 789.642C2997.02 788.932 2994.06 788.044 2990.27 786.979C2986.6 785.913 2981.75 785.381 2975.71 785.381C2961.86 785.381 2951.86 788.873 2945.7 795.857C2939.67 802.84 2936.65 813.08 2936.65 826.574V1127H2894.74ZM3108.44 1229.27C3101.34 1229.27 3095.01 1228.68 3089.44 1227.5C3083.88 1226.43 3080.03 1225.37 3077.9 1224.3L3088.56 1187.37C3098.74 1189.97 3107.73 1190.92 3115.54 1190.21C3123.36 1189.5 3130.28 1186.01 3136.32 1179.73C3142.47 1173.58 3148.1 1163.58 3153.19 1149.73L3161 1128.42L3060.15 854.273H3105.6L3180.89 1071.6H3183.73L3259.01 854.273H3304.47L3188.7 1166.77C3183.49 1180.86 3177.04 1192.52 3169.34 1201.75C3161.65 1211.1 3152.71 1218.03 3142.53 1222.53C3132.47 1227.02 3121.11 1229.27 3108.44 1229.27Z" fill="black"/>
<rect x="40" y="4" width="59.375" height="30" rx="3" fill="white"/>
<rect x="40.5" y="4.5" width="58.375" height="29" rx="2.5" stroke="black" stroke-opacity="0.2"/>
<path d="M51.3438 16C51.2969 15.6042 51.1068 15.2969 50.7734 15.0781C50.4401 14.8594 50.0313 14.75 49.5469 14.75C49.1927 14.75 48.8828 14.8073 48.6172 14.9219C48.3542 15.0365 48.1484 15.194 48 15.3945C47.8542 15.5951 47.7813 15.8229 47.7813 16.0781C47.7813 16.2917 47.832 16.4753 47.9336 16.6289C48.0378 16.7799 48.1706 16.9062 48.332 17.0078C48.4935 17.1068 48.6628 17.1888 48.8398 17.2539C49.0169 17.3164 49.1797 17.3672 49.3281 17.4062L50.1406 17.625C50.349 17.6797 50.5807 17.7552 50.8359 17.8516C51.0938 17.9479 51.3398 18.0794 51.5742 18.2461C51.8112 18.4102 52.0065 18.6211 52.1602 18.8789C52.3138 19.1367 52.3906 19.4531 52.3906 19.8281C52.3906 20.2604 52.2773 20.651 52.0508 21C51.8268 21.349 51.4987 21.6263 51.0664 21.832C50.6367 22.0378 50.1146 22.1406 49.5 22.1406C48.9271 22.1406 48.431 22.0482 48.0117 21.8633C47.5951 21.6784 47.2669 21.4206 47.0273 21.0898C46.7904 20.7591 46.6563 20.375 46.625 19.9375H47.625C47.651 20.2396 47.7526 20.4896 47.9297 20.6875C48.1094 20.8828 48.3359 21.0286 48.6094 21.125C48.8854 21.2187 49.1823 21.2656 49.5 21.2656C49.8698 21.2656 50.2018 21.2057 50.4961 21.0859C50.7904 20.9635 51.0234 20.7943 51.1953 20.5781C51.3672 20.3594 51.4531 20.1042 51.4531 19.8125C51.4531 19.5469 51.3789 19.3307 51.2305 19.1641C51.082 18.9974 50.8867 18.862 50.6445 18.7578C50.4023 18.6536 50.1406 18.5625 49.8594 18.4844L48.875 18.2031C48.25 18.0234 47.7552 17.7669 47.3906 17.4336C47.026 17.1003 46.8438 16.6641 46.8438 16.125C46.8438 15.6771 46.9648 15.2865 47.207 14.9531C47.4518 14.6172 47.7799 14.3568 48.1914 14.1719C48.6055 13.9844 49.0677 13.8906 49.5781 13.8906C50.0938 13.8906 50.5521 13.9831 50.9531 14.168C51.3542 14.3503 51.6719 14.6003 51.9062 14.918C52.1432 15.2357 52.2682 15.5964 52.2813 16H51.3438ZM56.374 22.125C55.7959 22.125 55.2972 21.9974 54.8779 21.7422C54.4613 21.4844 54.1396 21.125 53.9131 20.6641C53.6891 20.2005 53.5771 19.6615 53.5771 19.0469C53.5771 18.4323 53.6891 17.8906 53.9131 17.4219C54.1396 16.9505 54.4548 16.5833 54.8584 16.3203C55.2646 16.0547 55.7386 15.9219 56.2803 15.9219C56.5928 15.9219 56.9014 15.974 57.2061 16.0781C57.5107 16.1823 57.7881 16.3516 58.0381 16.5859C58.2881 16.8177 58.4873 17.125 58.6357 17.5078C58.7842 17.8906 58.8584 18.362 58.8584 18.9219V19.3125H54.2334V18.5156H57.9209C57.9209 18.1771 57.8532 17.875 57.7178 17.6094C57.585 17.3437 57.3949 17.1341 57.1475 16.9805C56.9027 16.8268 56.6136 16.75 56.2803 16.75C55.9131 16.75 55.5954 16.8411 55.3271 17.0234C55.0615 17.2031 54.8571 17.4375 54.7139 17.7266C54.5706 18.0156 54.499 18.3255 54.499 18.6562V19.1875C54.499 19.6406 54.5771 20.0247 54.7334 20.3398C54.8923 20.6523 55.1123 20.8906 55.3936 21.0547C55.6748 21.2161 56.0016 21.2969 56.374 21.2969C56.6162 21.2969 56.835 21.263 57.0303 21.1953C57.2282 21.125 57.3988 21.0208 57.542 20.8828C57.6852 20.7422 57.7959 20.5677 57.874 20.3594L58.7646 20.6094C58.6709 20.9115 58.5133 21.1771 58.292 21.4062C58.0706 21.6328 57.7972 21.8099 57.4717 21.9375C57.1462 22.0625 56.7803 22.125 56.374 22.125ZM62.6982 22.125C62.1357 22.125 61.6514 21.9922 61.2451 21.7266C60.8389 21.4609 60.5264 21.0951 60.3076 20.6289C60.0889 20.1628 59.9795 19.6302 59.9795 19.0312C59.9795 18.4219 60.0915 17.8841 60.3154 17.418C60.542 16.9492 60.8571 16.5833 61.2607 16.3203C61.667 16.0547 62.141 15.9219 62.6826 15.9219C63.1045 15.9219 63.4847 16 63.8232 16.1562C64.1618 16.3125 64.4391 16.5312 64.6553 16.8125C64.8714 17.0937 65.0055 17.4219 65.0576 17.7969H64.1357C64.0654 17.5234 63.9092 17.2812 63.667 17.0703C63.4274 16.8568 63.1045 16.75 62.6982 16.75C62.3389 16.75 62.0238 16.8437 61.7529 17.0312C61.4847 17.2161 61.2751 17.4779 61.124 17.8164C60.9756 18.1523 60.9014 18.5469 60.9014 19C60.9014 19.4635 60.9743 19.8672 61.1201 20.2109C61.2686 20.5547 61.4769 20.8216 61.7451 21.0117C62.016 21.2018 62.3337 21.2969 62.6982 21.2969C62.9378 21.2969 63.1553 21.2552 63.3506 21.1719C63.5459 21.0885 63.7113 20.9688 63.8467 20.8125C63.9821 20.6562 64.0785 20.4687 64.1357 20.25H65.0576C65.0055 20.6042 64.8766 20.9232 64.6709 21.207C64.4678 21.4883 64.1982 21.7122 63.8623 21.8789C63.529 22.043 63.141 22.125 62.6982 22.125ZM69.0146 16V16.7812H65.9053V16H69.0146ZM66.8115 14.5625H67.7334V20.2812C67.7334 20.5417 67.7712 20.737 67.8467 20.8672C67.9248 20.9948 68.0238 21.0807 68.1436 21.125C68.266 21.1667 68.3949 21.1875 68.5303 21.1875C68.6318 21.1875 68.7152 21.1823 68.7803 21.1719C68.8454 21.1589 68.8975 21.1484 68.9365 21.1406L69.124 21.9687C69.0615 21.9922 68.9743 22.0156 68.8623 22.0391C68.7503 22.0651 68.6084 22.0781 68.4365 22.0781C68.1761 22.0781 67.9209 22.0221 67.6709 21.9102C67.4235 21.7982 67.2178 21.6276 67.0537 21.3984C66.8923 21.1693 66.8115 20.8802 66.8115 20.5312V14.5625ZM70.4014 22V16H71.3232V22H70.4014ZM70.8701 15C70.6904 15 70.5355 14.9388 70.4053 14.8164C70.2777 14.694 70.2139 14.5469 70.2139 14.375C70.2139 14.2031 70.2777 14.056 70.4053 13.9336C70.5355 13.8112 70.6904 13.75 70.8701 13.75C71.0498 13.75 71.2035 13.8112 71.3311 13.9336C71.4613 14.056 71.5264 14.2031 71.5264 14.375C71.5264 14.5469 71.4613 14.694 71.3311 14.8164C71.2035 14.9388 71.0498 15 70.8701 15ZM75.4492 22.125C74.9076 22.125 74.4323 21.9961 74.0234 21.7383C73.6172 21.4805 73.2995 21.1198 73.0703 20.6562C72.8438 20.1927 72.7305 19.651 72.7305 19.0312C72.7305 18.4062 72.8438 17.8607 73.0703 17.3945C73.2995 16.9284 73.6172 16.5664 74.0234 16.3086C74.4323 16.0508 74.9076 15.9219 75.4492 15.9219C75.9909 15.9219 76.4648 16.0508 76.8711 16.3086C77.2799 16.5664 77.5977 16.9284 77.8242 17.3945C78.0534 17.8607 78.168 18.4062 78.168 19.0312C78.168 19.651 78.0534 20.1927 77.8242 20.6562C77.5977 21.1198 77.2799 21.4805 76.8711 21.7383C76.4648 21.9961 75.9909 22.125 75.4492 22.125ZM75.4492 21.2969C75.8607 21.2969 76.1992 21.1914 76.4648 20.9805C76.7305 20.7695 76.9271 20.4922 77.0547 20.1484C77.1823 19.8047 77.2461 19.4323 77.2461 19.0312C77.2461 18.6302 77.1823 18.2565 77.0547 17.9102C76.9271 17.5638 76.7305 17.2839 76.4648 17.0703C76.1992 16.8568 75.8607 16.75 75.4492 16.75C75.0378 16.75 74.6992 16.8568 74.4336 17.0703C74.168 17.2839 73.9714 17.5638 73.8438 17.9102C73.7161 18.2565 73.6523 18.6302 73.6523 19.0312C73.6523 19.4323 73.7161 19.8047 73.8438 20.1484C73.9714 20.4922 74.168 20.7695 74.4336 20.9805C74.6992 21.1914 75.0378 21.2969 75.4492 21.2969ZM80.4971 18.3906V22H79.5752V16H80.4658V16.9375H80.5439C80.6846 16.6328 80.8981 16.388 81.1846 16.2031C81.471 16.0156 81.8408 15.9219 82.2939 15.9219C82.7002 15.9219 83.0557 16.0052 83.3604 16.1719C83.665 16.3359 83.902 16.5859 84.0713 16.9219C84.2406 17.2552 84.3252 17.6771 84.3252 18.1875V22H83.4033V18.25C83.4033 17.7786 83.2809 17.4115 83.0361 17.1484C82.7913 16.8828 82.4554 16.75 82.0283 16.75C81.734 16.75 81.471 16.8138 81.2393 16.9414C81.0101 17.069 80.8291 17.2552 80.6963 17.5C80.5635 17.7448 80.4971 18.0417 80.4971 18.3906ZM91.9004 14V22H90.9316V15.0156H90.8848L88.9316 16.3125V15.3281L90.9316 14H91.9004Z" fill="black"/>
<defs>
<filter id="filter0_d_2_2" x="514" y="435" width="1032" height="1032" filterUnits="userSpaceOnUse" color-interpolation-filters="sRGB">
<feFlood flood-opacity="0" result="BackgroundImageFix"/>
<feColorMatrix in="SourceAlpha" type="matrix" values="0 0 0 0 0 0 0 0 0 0 0 0 0 0 0 0 0 0 127 0" result="hardAlpha"/>
<feOffset dy="4"/>
<feGaussianBlur stdDeviation="2"/>
<feComposite in2="hardAlpha" operator="out"/>
<feColorMatrix type="matrix" values="0 0 0 0 0 0 0 0 0 0 0 0 0 0 0 0 0 0 0.25 0"/>
<feBlend mode="normal" in2="BackgroundImageFix" result="effect1_dropShadow_2_2"/>
<feBlend mode="normal" in="SourceGraphic" in2="effect1_dropShadow_2_2" result="shape"/>
</filter>
</defs>
</svg>
