<svg width="257" height="249" viewBox="0 0 257 249" fill="none" xmlns="http://www.w3.org/2000/svg">
<path d="M201.277 0L248.825 0.0402503L248.852 47.3072L175.503 120.643L213.446 158.598L232.43 139.627L251.415 158.598L218.209 191.805L256.151 229.76L237.18 248.732L199.224 210.776L166.031 243.982L147.047 225.011L166.018 206.026L128.062 168.084L90.1197 206.026L109.104 225.011L90.1332 243.982L56.9269 210.776L18.9712 248.732L0 229.76L37.9558 191.791L4.7495 158.598L23.7207 139.627L42.6918 158.585L80.6208 120.643L7.36575 47.3877L7.31208 0L54.8876 0.0402503L128.049 73.2147L201.277 0ZM99.5785 139.614L61.6362 177.556L71.1352 187.042L109.064 149.099L99.5785 139.614ZM221.992 26.8467H212.372L147.033 92.1725L156.505 101.658L221.992 36.1982V26.8467ZM34.1588 26.8467V36.2384L184.976 187.055L194.461 177.57L43.7518 26.8602L34.1588 26.8467Z" fill="black"/>
</svg>
