<svg width="1298" height="1293" viewBox="0 0 1298 1293" fill="none" xmlns="http://www.w3.org/2000/svg">
<g filter="url(#filter0_d_20_519)">
<path d="M54 292.525C54 155.821 168.603 45 309.973 45H998.027C1139.4 45 1254 155.821 1254 292.525V997.475C1254 1134.18 1139.4 1245 998.027 1245H309.973C168.603 1245 54 1134.18 54 997.475V292.525Z" fill="#42129A"/>
<path d="M309.973 45.4951H998.027C1139.12 45.4951 1253.49 156.094 1253.49 292.525V997.475C1253.49 1133.91 1139.12 1244.5 998.027 1244.5H309.973C168.886 1244.5 54.512 1133.91 54.512 997.475V292.525C54.512 156.094 168.886 45.4951 309.973 45.4951Z" stroke="#42129A"/>
</g>
<path fill-rule="evenodd" clip-rule="evenodd" d="M200 365C200 268.348 278.348 190 375 190C471.652 190 550 268.348 550 365C550 461.652 471.652 540 375 540C278.348 540 200 461.652 200 365ZM375 295C375 290.359 373.156 285.908 369.874 282.626C366.592 279.344 362.141 277.5 357.5 277.5C352.859 277.5 348.408 279.344 345.126 282.626C341.844 285.908 340 290.359 340 295V382.5C340 387.141 341.844 391.592 345.126 394.874C348.408 398.156 352.859 400 357.5 400H445C449.641 400 454.092 398.156 457.374 394.874C460.656 391.592 462.5 387.141 462.5 382.5C462.5 377.859 460.656 373.408 457.374 370.126C454.092 366.844 449.641 365 445 365H375V295Z" fill="#F97316"/>
<path fill-rule="evenodd" clip-rule="evenodd" d="M1071.87 191.398C1077.08 198.691 1080 208.58 1080 218.891C1080 229.202 1077.08 239.091 1071.87 246.383L863.762 537.848C861.012 541.701 857.747 544.757 854.153 546.842C850.559 548.927 846.708 550 842.818 550C838.928 550 835.076 548.927 831.483 546.842C827.889 544.757 824.624 541.701 821.874 537.848L718.476 393.062C715.825 389.475 713.709 385.184 712.254 380.44C710.799 375.695 710.033 370.593 710.001 365.429C709.969 360.266 710.672 355.146 712.068 350.367C713.464 345.588 715.525 341.246 718.132 337.595C720.739 333.944 723.839 331.056 727.251 329.101C730.664 327.146 734.32 326.162 738.006 326.207C741.693 326.252 745.336 327.324 748.724 329.362C752.111 331.4 755.175 334.363 757.736 338.077L842.809 457.224L1032.59 191.398C1035.17 187.785 1038.23 184.918 1041.6 182.962C1044.97 181.007 1048.58 180 1052.23 180C1055.88 180 1059.49 181.007 1062.86 182.962C1066.23 184.918 1069.29 187.785 1071.87 191.398Z" fill="#22C55E"/>
<path d="M236.081 727.43C239.791 723.718 245.808 723.717 249.519 727.428L357.549 835.462C361.649 839.562 368.297 839.564 372.397 835.464L480.46 727.427C484.172 723.716 490.189 723.719 493.897 727.432L542.538 776.128C546.244 779.838 546.243 785.849 542.535 789.558L434.529 897.599C430.43 901.699 430.431 908.346 434.53 912.446L542.57 1020.5C546.282 1024.21 546.279 1030.23 542.563 1033.94L493.831 1082.59C490.12 1086.29 484.108 1086.29 480.4 1082.58L372.398 974.543C368.298 970.441 361.648 970.441 357.547 974.543L249.56 1082.58C245.851 1086.29 239.836 1086.29 236.125 1082.58L187.429 1033.92C183.717 1030.21 183.715 1024.19 187.425 1020.48L295.417 912.445C299.515 908.345 299.515 901.7 295.417 897.6L187.419 789.56C183.711 785.85 183.711 779.838 187.418 776.128L236.081 727.43Z" fill="#EF4444" stroke="black"/>
<g filter="url(#filter1_d_20_519)">
<path d="M904.99 1036.72L810.466 1096.34C806.29 1099.13 801.925 1100.32 797.369 1099.92C792.814 1099.52 788.828 1097.93 785.412 1095.15C781.995 1092.37 779.338 1088.89 777.44 1084.73C775.542 1080.56 775.162 1075.89 776.301 1070.71L801.355 958.023L717.65 882.304C713.854 878.727 711.485 874.649 710.544 870.07C709.602 865.491 709.883 861.024 711.387 856.667C712.89 852.311 715.168 848.734 718.22 845.935C721.272 843.137 725.448 841.349 730.747 840.57L841.215 830.434L883.922 724.309C885.82 719.539 888.766 715.962 892.759 713.577C896.753 711.192 900.83 710 904.99 710C909.151 710 913.228 711.192 917.221 713.577C921.215 715.962 924.161 719.539 926.059 724.309L968.766 830.434L1079.23 840.57C1084.55 841.365 1088.72 843.153 1091.76 845.935C1094.8 848.718 1097.08 852.295 1098.59 856.667C1100.11 861.039 1100.4 865.515 1099.46 870.094C1098.52 874.673 1096.14 878.743 1092.33 882.304L1008.63 958.023L1033.68 1070.71C1034.82 1075.87 1034.44 1080.55 1032.54 1084.73C1030.64 1088.91 1027.99 1092.38 1024.57 1095.15C1021.15 1097.92 1017.17 1099.51 1012.61 1099.92C1008.06 1100.33 1003.69 1099.14 999.514 1096.34L904.99 1036.72Z" fill="url(#paint0_linear_20_519)"/>
</g>
<rect x="43" y="43" width="46.0625" height="30" rx="3" fill="white"/>
<rect x="43.5" y="43.5" width="45.0625" height="29" rx="2.5" stroke="black" stroke-opacity="0.2"/>
<path d="M49.8438 61V55H50.7656V61H49.8438ZM50.3125 54C50.1328 54 49.9779 53.9388 49.8477 53.8164C49.7201 53.694 49.6563 53.5469 49.6563 53.375C49.6563 53.2031 49.7201 53.056 49.8477 52.9336C49.9779 52.8112 50.1328 52.75 50.3125 52.75C50.4922 52.75 50.6458 52.8112 50.7734 52.9336C50.9036 53.056 50.9688 53.2031 50.9688 53.375C50.9688 53.5469 50.9036 53.694 50.7734 53.8164C50.6458 53.9388 50.4922 54 50.3125 54ZM54.8916 61.125C54.3291 61.125 53.8447 60.9922 53.4385 60.7266C53.0322 60.4609 52.7197 60.0951 52.501 59.6289C52.2822 59.1628 52.1729 58.6302 52.1729 58.0312C52.1729 57.4219 52.2848 56.8841 52.5088 56.418C52.7354 55.9492 53.0505 55.5833 53.4541 55.3203C53.8604 55.0547 54.3343 54.9219 54.876 54.9219C55.2979 54.9219 55.6781 55 56.0166 55.1562C56.3551 55.3125 56.6325 55.5312 56.8486 55.8125C57.0648 56.0937 57.1989 56.4219 57.251 56.7969H56.3291C56.2588 56.5234 56.1025 56.2812 55.8604 56.0703C55.6208 55.8568 55.2979 55.75 54.8916 55.75C54.5322 55.75 54.2171 55.8437 53.9463 56.0312C53.6781 56.2161 53.4684 56.4779 53.3174 56.8164C53.1689 57.1523 53.0947 57.5469 53.0947 58C53.0947 58.4635 53.1676 58.8672 53.3135 59.2109C53.4619 59.5547 53.6702 59.8216 53.9385 60.0117C54.2093 60.2018 54.527 60.2969 54.8916 60.2969C55.1312 60.2969 55.3486 60.2552 55.5439 60.1719C55.7393 60.0885 55.9046 59.9688 56.04 59.8125C56.1755 59.6562 56.2718 59.4687 56.3291 59.25H57.251C57.1989 59.6042 57.07 59.9232 56.8643 60.207C56.6611 60.4883 56.3916 60.7122 56.0557 60.8789C55.7223 61.043 55.3343 61.125 54.8916 61.125ZM61.0361 61.125C60.4945 61.125 60.0192 60.9961 59.6104 60.7383C59.2041 60.4805 58.8864 60.1198 58.6572 59.6562C58.4307 59.1927 58.3174 58.651 58.3174 58.0312C58.3174 57.4062 58.4307 56.8607 58.6572 56.3945C58.8864 55.9284 59.2041 55.5664 59.6104 55.3086C60.0192 55.0508 60.4945 54.9219 61.0361 54.9219C61.5778 54.9219 62.0518 55.0508 62.458 55.3086C62.8669 55.5664 63.1846 55.9284 63.4111 56.3945C63.6403 56.8607 63.7549 57.4062 63.7549 58.0312C63.7549 58.651 63.6403 59.1927 63.4111 59.6562C63.1846 60.1198 62.8669 60.4805 62.458 60.7383C62.0518 60.9961 61.5778 61.125 61.0361 61.125ZM61.0361 60.2969C61.4476 60.2969 61.7861 60.1914 62.0518 59.9805C62.3174 59.7695 62.514 59.4922 62.6416 59.1484C62.7692 58.8047 62.833 58.4323 62.833 58.0312C62.833 57.6302 62.7692 57.2565 62.6416 56.9102C62.514 56.5638 62.3174 56.2839 62.0518 56.0703C61.7861 55.8568 61.4476 55.75 61.0361 55.75C60.6247 55.75 60.2861 55.8568 60.0205 56.0703C59.7549 56.2839 59.5583 56.5638 59.4307 56.9102C59.3031 57.2565 59.2393 57.6302 59.2393 58.0312C59.2393 58.4323 59.3031 58.8047 59.4307 59.1484C59.5583 59.4922 59.7549 59.7695 60.0205 59.9805C60.2861 60.1914 60.6247 60.2969 61.0361 60.2969ZM66.084 57.3906V61H65.1621V55H66.0527V55.9375H66.1309C66.2715 55.6328 66.485 55.388 66.7715 55.2031C67.0579 55.0156 67.4277 54.9219 67.8809 54.9219C68.2871 54.9219 68.6426 55.0052 68.9473 55.1719C69.252 55.3359 69.4889 55.5859 69.6582 55.9219C69.8275 56.2552 69.9121 56.6771 69.9121 57.1875V61H68.9902V57.25C68.9902 56.7786 68.8678 56.4115 68.623 56.1484C68.3783 55.8828 68.0423 55.75 67.6152 55.75C67.321 55.75 67.0579 55.8138 66.8262 55.9414C66.597 56.069 66.416 56.2552 66.2832 56.5C66.1504 56.7448 66.084 57.0417 66.084 57.3906ZM74.0342 61.125C73.4925 61.125 73.0173 60.9961 72.6084 60.7383C72.2021 60.4805 71.8844 60.1198 71.6553 59.6562C71.4287 59.1927 71.3154 58.651 71.3154 58.0312C71.3154 57.4062 71.4287 56.8607 71.6553 56.3945C71.8844 55.9284 72.2021 55.5664 72.6084 55.3086C73.0173 55.0508 73.4925 54.9219 74.0342 54.9219C74.5758 54.9219 75.0498 55.0508 75.4561 55.3086C75.8649 55.5664 76.1826 55.9284 76.4092 56.3945C76.6383 56.8607 76.7529 57.4062 76.7529 58.0312C76.7529 58.651 76.6383 59.1927 76.4092 59.6562C76.1826 60.1198 75.8649 60.4805 75.4561 60.7383C75.0498 60.9961 74.5758 61.125 74.0342 61.125ZM74.0342 60.2969C74.4456 60.2969 74.7842 60.1914 75.0498 59.9805C75.3154 59.7695 75.512 59.4922 75.6396 59.1484C75.7673 58.8047 75.8311 58.4323 75.8311 58.0312C75.8311 57.6302 75.7673 57.2565 75.6396 56.9102C75.512 56.5638 75.3154 56.2839 75.0498 56.0703C74.7842 55.8568 74.4456 55.75 74.0342 55.75C73.6227 55.75 73.2842 55.8568 73.0186 56.0703C72.7529 56.2839 72.5563 56.5638 72.4287 56.9102C72.3011 57.2565 72.2373 57.6302 72.2373 58.0312C72.2373 58.4323 72.3011 58.8047 72.4287 59.1484C72.5563 59.4922 72.7529 59.7695 73.0186 59.9805C73.2842 60.1914 73.6227 60.2969 74.0342 60.2969ZM82.4102 56.3437L81.582 56.5781C81.5299 56.4401 81.4531 56.306 81.3516 56.1758C81.2526 56.043 81.1172 55.9336 80.9453 55.8477C80.7734 55.7617 80.5534 55.7187 80.2852 55.7187C79.918 55.7187 79.612 55.8034 79.3672 55.9727C79.125 56.1393 79.0039 56.3516 79.0039 56.6094C79.0039 56.8385 79.0872 57.0195 79.2539 57.1523C79.4206 57.2852 79.681 57.3958 80.0352 57.4844L80.9258 57.7031C81.4622 57.8333 81.862 58.0326 82.125 58.3008C82.388 58.5664 82.5195 58.9089 82.5195 59.3281C82.5195 59.6719 82.4206 59.9792 82.2227 60.25C82.0273 60.5208 81.7539 60.7344 81.4023 60.8906C81.0508 61.0469 80.6419 61.125 80.1758 61.125C79.5638 61.125 79.0573 60.9922 78.6563 60.7266C78.2552 60.4609 78.0013 60.0729 77.8945 59.5625L78.7695 59.3437C78.8529 59.6667 79.0104 59.9089 79.2422 60.0703C79.4766 60.2318 79.7826 60.3125 80.1602 60.3125C80.5898 60.3125 80.931 60.2214 81.1836 60.0391C81.4388 59.8542 81.5664 59.6328 81.5664 59.375C81.5664 59.1667 81.4935 58.9922 81.3477 58.8516C81.2018 58.7083 80.9779 58.6016 80.6758 58.5312L79.6758 58.2969C79.1263 58.1667 78.7227 57.9648 78.4648 57.6914C78.2096 57.4154 78.082 57.0703 78.082 56.6562C78.082 56.3177 78.1771 56.0182 78.3672 55.7578C78.5599 55.4974 78.8216 55.293 79.1523 55.1445C79.4857 54.9961 79.8633 54.9219 80.2852 54.9219C80.8789 54.9219 81.3451 55.0521 81.6836 55.3125C82.0247 55.5729 82.2669 55.9167 82.4102 56.3437Z" fill="black"/>
<rect x="167" y="167" width="63.7344" height="30" rx="3" fill="black"/>
<rect x="167.5" y="167.5" width="62.7344" height="29" rx="2.5" stroke="black" stroke-opacity="0.2"/>
<path d="M175.422 185L173.234 177H174.219L175.891 183.516H175.969L177.672 177H178.766L180.469 183.516H180.547L182.219 177H183.203L181.016 185H180.016L178.25 178.625H178.188L176.422 185H175.422ZM184.41 185V177H189.238V177.859H185.379V180.562H188.988V181.422H185.379V184.141H189.301V185H184.41ZM190.984 185V177H193.781C194.339 177 194.798 177.096 195.16 177.289C195.522 177.479 195.792 177.736 195.969 178.059C196.146 178.379 196.234 178.734 196.234 179.125C196.234 179.469 196.173 179.753 196.051 179.977C195.931 180.201 195.772 180.378 195.574 180.508C195.379 180.638 195.167 180.734 194.938 180.797V180.875C195.182 180.891 195.428 180.977 195.676 181.133C195.923 181.289 196.13 181.513 196.297 181.805C196.464 182.096 196.547 182.453 196.547 182.875C196.547 183.276 196.456 183.637 196.273 183.957C196.091 184.277 195.803 184.531 195.41 184.719C195.017 184.906 194.505 185 193.875 185H190.984ZM191.953 184.141H193.875C194.508 184.141 194.957 184.018 195.223 183.773C195.491 183.526 195.625 183.227 195.625 182.875C195.625 182.604 195.556 182.354 195.418 182.125C195.28 181.893 195.083 181.708 194.828 181.57C194.573 181.43 194.271 181.359 193.922 181.359H191.953V184.141ZM191.953 180.516H193.75C194.042 180.516 194.305 180.458 194.539 180.344C194.776 180.229 194.964 180.068 195.102 179.859C195.242 179.651 195.313 179.406 195.313 179.125C195.313 178.773 195.19 178.475 194.945 178.23C194.701 177.983 194.313 177.859 193.781 177.859H191.953V180.516ZM199.107 177V185H198.139V177H199.107ZM207.487 179.5H206.519C206.461 179.221 206.361 178.977 206.218 178.766C206.077 178.555 205.905 178.378 205.702 178.234C205.502 178.089 205.279 177.979 205.034 177.906C204.789 177.833 204.534 177.797 204.269 177.797C203.784 177.797 203.345 177.919 202.952 178.164C202.562 178.409 202.25 178.77 202.019 179.246C201.789 179.723 201.675 180.307 201.675 181C201.675 181.693 201.789 182.277 202.019 182.754C202.25 183.23 202.562 183.591 202.952 183.836C203.345 184.081 203.784 184.203 204.269 184.203C204.534 184.203 204.789 184.167 205.034 184.094C205.279 184.021 205.502 183.913 205.702 183.77C205.905 183.624 206.077 183.445 206.218 183.234C206.361 183.021 206.461 182.776 206.519 182.5H207.487C207.414 182.909 207.282 183.275 207.089 183.598C206.896 183.921 206.657 184.195 206.37 184.422C206.084 184.646 205.762 184.816 205.405 184.934C205.051 185.051 204.672 185.109 204.269 185.109C203.586 185.109 202.979 184.943 202.448 184.609C201.917 184.276 201.499 183.802 201.194 183.187C200.89 182.573 200.737 181.844 200.737 181C200.737 180.156 200.89 179.427 201.194 178.812C201.499 178.198 201.917 177.724 202.448 177.391C202.979 177.057 203.586 176.891 204.269 176.891C204.672 176.891 205.051 176.949 205.405 177.066C205.762 177.184 206.084 177.355 206.37 177.582C206.657 177.806 206.896 178.079 207.089 178.402C207.282 178.723 207.414 179.089 207.487 179.5ZM215.803 181C215.803 181.844 215.65 182.573 215.346 183.187C215.041 183.802 214.623 184.276 214.092 184.609C213.561 184.943 212.954 185.109 212.271 185.109C211.589 185.109 210.982 184.943 210.451 184.609C209.92 184.276 209.502 183.802 209.197 183.187C208.893 182.573 208.74 181.844 208.74 181C208.74 180.156 208.893 179.427 209.197 178.812C209.502 178.198 209.92 177.724 210.451 177.391C210.982 177.057 211.589 176.891 212.271 176.891C212.954 176.891 213.561 177.057 214.092 177.391C214.623 177.724 215.041 178.198 215.346 178.812C215.65 179.427 215.803 180.156 215.803 181ZM214.865 181C214.865 180.307 214.749 179.723 214.518 179.246C214.288 178.77 213.977 178.409 213.584 178.164C213.193 177.919 212.756 177.797 212.271 177.797C211.787 177.797 211.348 177.919 210.955 178.164C210.564 178.409 210.253 178.77 210.021 179.246C209.792 179.723 209.678 180.307 209.678 181C209.678 181.693 209.792 182.277 210.021 182.754C210.253 183.23 210.564 183.591 210.955 183.836C211.348 184.081 211.787 184.203 212.271 184.203C212.756 184.203 213.193 184.081 213.584 183.836C213.977 183.591 214.288 183.23 214.518 182.754C214.749 182.277 214.865 181.693 214.865 181ZM223.775 177V185H222.838L218.479 178.719H218.4V185H217.432V177H218.369L222.744 183.297H222.822V177H223.775Z" fill="white"/>
<defs>
<filter id="filter0_d_20_519" x="50" y="44.9951" width="1208" height="1208.01" filterUnits="userSpaceOnUse" color-interpolation-filters="sRGB">
<feFlood flood-opacity="0" result="BackgroundImageFix"/>
<feColorMatrix in="SourceAlpha" type="matrix" values="0 0 0 0 0 0 0 0 0 0 0 0 0 0 0 0 0 0 127 0" result="hardAlpha"/>
<feOffset dy="4"/>
<feGaussianBlur stdDeviation="2"/>
<feComposite in2="hardAlpha" operator="out"/>
<feColorMatrix type="matrix" values="0 0 0 0 0 0 0 0 0 0 0 0 0 0 0 0 0 0 0.25 0"/>
<feBlend mode="normal" in2="BackgroundImageFix" result="effect1_dropShadow_20_519"/>
<feBlend mode="normal" in="SourceGraphic" in2="effect1_dropShadow_20_519" result="shape"/>
</filter>
<filter id="filter1_d_20_519" x="706" y="710" width="398" height="398" filterUnits="userSpaceOnUse" color-interpolation-filters="sRGB">
<feFlood flood-opacity="0" result="BackgroundImageFix"/>
<feColorMatrix in="SourceAlpha" type="matrix" values="0 0 0 0 0 0 0 0 0 0 0 0 0 0 0 0 0 0 127 0" result="hardAlpha"/>
<feOffset dy="4"/>
<feGaussianBlur stdDeviation="2"/>
<feComposite in2="hardAlpha" operator="out"/>
<feColorMatrix type="matrix" values="0 0 0 0 0 0 0 0 0 0 0 0 0 0 0 0 0 0 0.25 0"/>
<feBlend mode="normal" in2="BackgroundImageFix" result="effect1_dropShadow_20_519"/>
<feBlend mode="normal" in="SourceGraphic" in2="effect1_dropShadow_20_519" result="shape"/>
</filter>
<linearGradient id="paint0_linear_20_519" x1="905" y1="710" x2="905" y2="1100" gradientUnits="userSpaceOnUse">
<stop offset="0.5625" stop-color="#EAB308"/>
</linearGradient>
</defs>
</svg>
